<svg width="209" height="377" viewBox="0 0 209 377" xmlns="http://www.w3.org/2000/svg"><title>Group</title><g fill="none" fill-rule="evenodd"><path d="M149.804 376.847h51.203c4.415 0 7.993-3.584 7.993-8.005V80.437c0-4.429-2.659-10.405-5.938-13.365L129.967 1.109c-1.637-1.478-4.295-1.48-5.934 0L50.938 67.072C47.658 70.032 45 76.015 45 80.437v106.667l100.809 75.9c2.206 1.661 3.995 5.248 3.995 8.008v105.835zM73 71.007A3.004 3.004 0 0 1 76.007 68h33.986A3.004 3.004 0 0 1 113 71.007v33.986a3.004 3.004 0 0 1-3.007 3.007H76.007A3.004 3.004 0 0 1 73 104.993V71.007zm70 0A3.004 3.004 0 0 1 146.007 68h33.986A3.004 3.004 0 0 1 183 71.007v33.986a3.004 3.004 0 0 1-3.007 3.007h-33.986a3.004 3.004 0 0 1-3.007-3.007V71.007zm-70 59A3.004 3.004 0 0 1 76.007 127h33.986a3.004 3.004 0 0 1 3.007 3.007v33.986a3.004 3.004 0 0 1-3.007 3.007H76.007A3.004 3.004 0 0 1 73 163.993v-33.986zm70 0a3.004 3.004 0 0 1 3.007-3.007h33.986a3.004 3.004 0 0 1 3.007 3.007v33.986a3.004 3.004 0 0 1-3.007 3.007h-33.986a3.004 3.004 0 0 1-3.007-3.007v-33.986zm0 59a3.004 3.004 0 0 1 3.007-3.007h33.986a3.004 3.004 0 0 1 3.007 3.007v33.986a3.004 3.004 0 0 1-3.007 3.007h-33.986a3.004 3.004 0 0 1-3.007-3.007v-33.986zM73 188c0-1.105.892-2.001 1.997-2.001h34.996a3.003 3.003 0 0 1 3.007 2.998v33.037c0 1.656-1.07 2.182-2.382 1.181l-36.819-28.074c-.441-.336-.799-1.056-.799-1.605V188zm70 59.994a2.998 2.998 0 0 1 3.007-2.995h33.986a3.004 3.004 0 0 1 3.007 3.007v33.986a3 3 0 0 1-2.991 3.007H161.99a2.993 2.993 0 0 1-2.991-3v-17.503c0-1.103-.708-2.55-1.578-3.23l-13.629-10.647c-.438-.342-.793-1.064-.793-1.62v-1.005zm16 58.002a2 2 0 0 1 2.005-1.997h19.004a2.996 2.996 0 0 1 2.991 3.007v33.986a3 3 0 0 1-2.991 3.007h-19.004a2 2 0 0 1-2.005-1.997v-36.006z" fill="#D1D1D1"/><path d="M0 187.52c0-4.416 2.868-5.837 6.391-3.185l117.62 88.558c2.203 1.659 3.989 5.246 3.989 7.993v87.636c0 4.419-3.59 8.001-8.007 8.001H8.007c-4.422 0-8.007-3.587-8.007-7.997V187.52zm19 38.882c0-3.318 2.142-4.395 4.794-2.4l49.144 36.99c2.647 1.992 2.098 3.607-1.216 3.607H25.01a6.004 6.004 0 0 1-6.01-6.007v-32.19zm0 62.405a3 3 0 0 1 2.998-3.007h84.876a2.996 2.996 0 0 1 2.997 3.007v16.986a3 3 0 0 1-2.997 3.007H21.998A2.996 2.996 0 0 1 19 305.793v-16.986zm0 44.2A3 3 0 0 1 21.998 330h84.876a2.996 2.996 0 0 1 2.997 3.007v16.986a3 3 0 0 1-2.997 3.007H21.998A2.996 2.996 0 0 1 19 349.993v-16.986z" fill="#81C8D1"/></g></svg>