<svg xmlns="http://www.w3.org/2000/svg" width="470.749" height="424.867" viewBox="0 0 441.32748 398.31265"><path d="M239.902.007a200.004 200.004 0 0 0-106.357 31.697c-45.95 31.742-75.876 74.943-87.332 125.604 0 0-11.837 39.56.187 89.188L0 344.019c40.756-19.867 66.185-20.508 87.342-2.793 55.503 46.474 168.982 86.736 261.982 27.285l-.066-.103c92.54-59.89 120.201-183.899 60.533-276.63-35.686-55.46-96.42-89.764-162.344-91.692-2.518-.073-5.033-.1-7.545-.078zm-80.425 118.576a25 25 0 0 1 20.293 11.461c7.466 11.604 4.12 27.062-7.477 34.54l-13.549-21.012 13.467 21.064c-11.625 7.431-27.073 4.04-34.516-7.578-7.443-11.618-4.067-27.069 7.543-34.523a25 25 0 0 1 14.239-3.952zm165.712 0a25 25 0 0 1 20.293 11.461c7.467 11.603 4.122 27.062-7.474 34.54l-13.549-21.012 13.465 21.064c-11.625 7.431-27.073 4.04-34.516-7.578-7.443-11.618-4.066-27.07 7.545-34.523a25 25 0 0 1 14.236-3.952zm-40.404 111.659c62.58.215 113.557 36.802 113.557 36.802s-87.356-24.963-143.985-12.685c-56.628 12.277-112.597 49.957-112.597 49.957s35.533-55.063 111.545-70.938c10.689-2.232 21.24-3.172 31.48-3.136z" fill="#fff"/></svg>