<svg width="16061" height="2860" viewBox="0 0 16061 2860" xmlns="http://www.w3.org/2000/svg" xmlns:xlink="http://www.w3.org/1999/xlink"><title>Group 12</title><defs><path id="a" d="M273.5 431.49l-169.032 88.893 32.282-188.276L0 198.769l188.984-27.47L273.5 0l84.516 171.3L547 198.768 410.25 332.107l32.282 188.276z"/><path id="c" d="M412.245 650.186L157.464 784.132l48.659-283.702L0 299.512l284.854-41.392L412.245 0l127.39 258.12 284.855 41.392L618.368 500.43l48.659 283.702z"/><path id="e" d="M162 255.913L61.878 308.634 81 196.969 0 117.888l111.94-16.292L162 0l50.06 101.596L324 117.888l-81 79.081 19.122 111.665z"/><path id="g" d="M114.5 180.547l-70.765 37.195 13.515-78.78L0 83.17l79.118-11.494L114.5 0l35.382 71.676L229 83.17l-57.25 55.792 13.515 78.78z"/><path id="i" d="M881.5 1389.16l-544.797 286.183 104.047-606.145L0 639.924l609.102-88.435L881.5 0l272.398 551.489L1763 639.924l-440.75 429.274 104.047 606.145z"/><path id="k" d="M588.175 1477.068L224.663 1781.36l69.424-644.502L0 680.42l406.419-94.031L588.175 0 769.93 586.388l406.42 94.031-294.088 456.44 69.424 644.501z"/><path id="m" d="M1284.06 2023.555l-793.593 416.876 151.563-882.956L0 932.162 887.263 803.34 1284.06 0l396.796 803.34 887.263 128.822-642.03 625.313 151.563 882.956z"/></defs><g fill="none" fill-rule="evenodd"><g transform="rotate(22 -1144.43 2544.616)"><mask id="b" fill="#fff"><use xlink:href="#a"/></mask><path d="M41.476 53.17c-14.776 4.673-26.647 1.52-26.51-6.999.138-8.518 12.216-19.722 26.973-25.075 14.752-5.408 26.612-2.373 26.494 6.829-.118 9.202-12.185 20.525-26.957 25.246zm76.755-25.073c-14.754 4.924-26.63 1.173-26.521-8.336.108-9.508 12.142-21.748 26.874-27.39 14.726-5.696 26.591-2.063 26.506 8.166-.086 10.229-12.11 22.588-26.859 27.56zm76.617-22.424c-14.734 5.1-26.621.646-26.546-9.905.075-10.55 12.063-23.81 26.771-29.664 14.704-5.91 26.58-1.573 26.531 9.736-.049 11.309-12.026 24.685-26.756 29.833zm76.537-27.287c-14.712 5.349-26.612.208-26.575-11.439.037-11.647 11.973-26.025 26.657-32.164 14.678-6.194 26.567-1.17 26.56 11.271-.007 12.441-11.934 26.936-26.642 32.332zm76.424-28.575c-14.69 5.596-26.607-.275-26.613-13.07-.006-12.796 11.875-28.336 26.533-34.76 14.653-6.479 26.56-.724 26.598 12.902.039 13.627-11.832 29.284-26.518 34.928zm76.309-29.864c-14.668 5.844-26.606-.8-26.66-14.797-.053-13.997 11.77-30.742 26.402-37.451 14.628-6.764 26.555-.236 26.644 14.629.09 14.865-11.722 31.727-26.386 37.619zm76.195-31.154c-14.647 6.092-26.609-1.368-26.715-16.62-.105-15.25 11.654-33.244 26.261-40.237 14.603-7.049 26.555.295 26.7 16.451.145 16.157-11.604 34.267-26.246 40.406zm76.08-32.442c-14.624 6.34-26.615-1.979-26.777-18.538-.163-16.559 11.53-35.843 26.112-43.121 14.577-7.333 26.557.87 26.762 18.37.206 17.5-11.477 36.901-26.097 43.289zM40.702 106.807c-14.809 3.535-26.704-.532-26.567-9.05.137-8.52 12.24-18.81 27.03-23.025 14.785-4.259 26.673-.283 26.555 8.919-.118 9.202-12.213 19.584-27.018 23.156zm76.94-18.968c-14.792 3.725-26.698-.99-26.59-10.499.11-9.508 12.173-20.785 26.942-25.227 14.765-4.486 26.662.138 26.577 10.367-.086 10.23-12.141 21.598-26.93 25.36zm76.829-15.998c-14.778 3.84-26.699-1.628-26.623-12.179.075-10.551 12.097-22.797 26.848-27.39 14.748-4.637 26.66.74 26.612 12.05-.049 11.308-12.063 23.643-26.837 27.519zm76.778-20.54c-14.76 4.026-26.699-2.178-26.662-13.825.037-11.647 12.012-24.962 26.744-29.778 14.728-4.86 26.658 1.255 26.65 13.696-.007 12.441-11.974 25.846-26.732 29.907zm76.693-21.508c-14.744 4.212-26.704-2.772-26.71-15.568-.006-12.795 11.919-27.222 26.63-32.262 14.709-5.082 26.66 1.813 26.7 15.44.038 13.626-11.879 28.143-26.62 32.39zM424.55 7.317c-14.727 4.398-26.712-3.41-26.766-17.406-.054-13.997 11.816-29.58 26.508-34.842 14.689-5.306 26.666 2.412 26.755 17.277.09 14.865-11.772 30.537-26.497 34.97zm76.522-23.445c-14.712 4.585-26.726-4.089-26.832-19.34-.105-15.252 11.706-32.032 26.378-37.518 14.669-5.529 26.675 3.055 26.82 19.212.145 16.156-11.658 33.026-26.366 37.646zm76.435-24.414c-14.695 4.771-26.742-4.811-26.904-21.37-.163-16.559 11.586-34.58 26.238-40.289 14.65-5.752 26.688 3.741 26.893 21.242.206 17.5-11.536 35.61-26.227 40.417zM39.928 160.443c-14.84 2.397-26.762-2.583-26.624-11.102.137-8.518 12.265-17.895 27.087-20.973 14.818-3.11 26.734 1.807 26.616 11.009-.118 9.202-12.24 18.644-27.08 21.066zm77.124-12.862c-14.83 2.526-26.765-3.153-26.656-12.661.108-9.509 12.202-19.822 27.008-23.065 14.804-3.275 26.734 2.34 26.648 12.569-.086 10.229-12.173 20.607-27 23.157zm77.042-9.572c-14.82 2.578-26.776-3.902-26.7-14.453.074-10.551 12.13-21.784 26.925-25.116 14.792-3.364 26.742 3.054 26.693 14.363-.05 11.308-12.1 22.603-26.918 25.206zm77.02-13.793c-14.81 2.703-26.787-4.564-26.75-16.211.037-11.647 12.05-23.898 26.83-27.392 14.778-3.526 26.75 3.68 26.742 16.12-.007 12.442-12.015 24.756-26.822 27.483zm76.962-14.44c-14.798 2.827-26.801-5.27-26.807-18.066-.006-12.795 11.961-26.109 26.727-29.764 14.763-3.687 26.76 4.348 26.8 17.975.038 13.627-11.924 27.003-26.72 29.855zm76.905-15.089c-14.787 2.952-26.82-6.018-26.873-20.015-.054-13.997 11.863-28.416 26.615-32.233 14.749-3.848 26.776 5.06 26.865 19.925.09 14.866-11.822 29.347-26.607 32.323zm76.847-15.737c-14.776 3.078-26.842-6.81-26.947-22.06-.106-15.252 11.757-30.819 26.494-34.797 14.735-4.01 26.795 5.814 26.94 21.971.145 16.157-11.712 31.785-26.487 34.886zm76.79-16.384c-14.765 3.202-26.868-7.644-27.03-24.203-.163-16.559 11.642-33.316 26.365-37.456 14.72-4.171 26.818 6.612 27.023 24.113.205 17.5-11.594 34.32-26.357 37.546zM39.155 214.079c-14.873 1.26-26.82-4.634-26.682-13.153.137-8.518 12.291-16.982 27.145-18.922 14.852-1.96 26.795 3.897 26.677 13.099-.118 9.202-12.268 17.703-27.14 18.976zm77.308-6.756c-14.867 1.326-26.832-5.316-26.723-14.824.108-9.509 12.231-18.859 27.076-20.902 14.842-2.064 26.804 4.541 26.718 14.77-.086 10.23-12.205 19.616-27.071 20.956zm77.255-3.146c-14.864 1.318-26.853-6.177-26.778-16.728.075-10.55 12.165-20.77 27.003-22.841 14.836-2.09 26.822 5.368 26.773 16.676-.049 11.309-12.136 21.563-26.998 22.893zm77.26-7.046c-14.857 1.38-26.873-6.95-26.836-18.597.037-11.647 12.089-22.835 26.918-25.006 14.827-2.191 26.84 6.104 26.832 18.546-.007 12.44-12.056 23.664-26.913 25.057zm77.233-7.373c-14.853 1.443-26.899-7.768-26.905-20.563-.006-12.796 12.005-24.996 26.825-27.267 14.818-2.29 26.86 6.885 26.9 20.512.038 13.627-11.97 25.862-26.82 27.318zm77.203-7.7c-14.847 1.506-26.927-8.629-26.98-22.626-.054-13.997 11.91-27.252 26.721-29.623 14.81-2.39 26.887 7.709 26.976 22.574.09 14.865-11.872 28.155-26.717 29.674zm77.173-8.029c-14.84 1.57-26.959-9.53-27.064-24.782-.106-15.252 11.809-29.605 26.611-32.076 14.8-2.49 26.915 8.575 27.06 24.731.145 16.157-11.766 30.545-26.607 32.127zm77.145-8.356c-14.835 1.633-26.995-10.476-27.158-27.035-.162-16.559 11.7-32.053 26.493-34.624 14.792-2.59 26.948 9.484 27.153 26.985.205 17.5-11.653 33.03-26.488 34.674zM38.38 267.715c-14.905.122-26.877-6.686-26.74-15.204.138-8.518 12.317-16.069 27.203-16.871 14.885-.81 26.856 5.987 26.738 15.189-.118 9.202-12.296 16.763-27.201 16.886zm77.492-.65c-14.904.127-26.899-7.48-26.79-16.987.108-9.509 12.26-17.895 27.143-18.74 14.881-.852 26.875 6.744 26.79 16.973-.086 10.229-12.238 18.625-27.143 18.753zm77.468 3.28c-14.907.057-26.93-8.45-26.855-19.002.075-10.551 12.2-19.756 27.08-20.567 14.88-.818 26.903 7.68 26.854 18.99-.049 11.308-12.173 20.522-27.08 20.579zm77.502-.299c-14.907.058-26.961-9.337-26.924-20.983.037-11.647 12.128-21.772 27.005-22.62 14.877-.857 26.93 8.53 26.923 20.97-.008 12.442-12.098 22.575-27.004 22.633zm77.501-.306c-14.906.06-26.995-10.265-27.001-23.06-.006-12.796 12.047-23.883 26.921-24.77 14.874-.894 26.962 9.422 27 23.049.04 13.626-12.013 24.721-26.92 24.781zm77.501-.313c-14.906.061-27.034-11.237-27.087-25.234-.054-13.997 11.958-26.088 26.829-27.014 14.87-.932 26.997 10.357 27.086 25.222.09 14.865-11.922 26.965-26.828 27.026zm77.5-.32c-14.906.063-27.076-12.251-27.181-27.503-.106-15.251 11.86-28.39 26.728-29.354 14.867-.97 27.036 11.334 27.18 27.49.146 16.157-11.82 29.305-26.727 29.368zm77.5-.326c-14.906.063-27.122-13.31-27.285-29.868-.163-16.559 11.756-30.79 26.62-31.791 14.863-1.01 27.078 12.355 27.283 29.855.205 17.501-11.712 31.74-26.618 31.804zm-548.647 52.2c-14.937-1.01-26.932-8.674-26.793-17.126.139-8.451 12.345-15.035 27.263-14.7 14.918.337 26.914 8.017 26.795 17.15-.12 9.132-12.327 15.7-27.265 14.677zm79.607 5.575c-14.942-1.07-26.965-9.6-26.855-19.063.11-9.463 12.293-16.85 27.213-16.496 14.92.358 26.944 8.905 26.857 19.087-.087 10.182-12.272 17.552-27.215 16.472zm79.635 5.883c-14.947-1.128-27.002-10.57-26.927-21.1.076-10.53 12.233-18.765 27.155-18.39 14.922.377 26.978 9.836 26.928 21.123-.05 11.287-12.208 19.505-27.156 18.367zm79.662 6.192c-14.952-1.185-27.043-11.585-27.007-23.237.037-11.652 12.164-20.781 27.087-20.387 14.924.399 27.016 10.815 27.009 23.262-.007 12.447-12.136 21.559-27.09 20.362zm79.69 6.502c-14.958-1.244-27.089-12.645-27.096-25.476-.007-12.83 12.085-22.898 27.01-22.483 14.926.419 27.058 11.837 27.098 25.5.04 13.663-12.054 23.714-27.013 22.46zm79.716 6.811c-14.962-1.302-27.137-13.75-27.193-27.815-.056-14.064 11.998-25.115 26.925-24.68 14.927.439 27.103 12.904 27.195 27.839.093 14.934-11.963 25.969-26.927 24.656zm79.745 7.12c-14.968-1.36-27.19-14.9-27.3-30.254-.11-15.354 11.902-27.434 26.83-26.978 14.929.459 27.153 14.017 27.302 30.278.15 16.262-11.864 28.325-26.832 26.954zm79.771 7.43c-14.972-1.418-27.247-16.096-27.416-32.795-.169-16.698 11.797-29.852 26.728-29.377 14.93.48 27.206 15.175 27.418 32.82.212 17.644-11.756 30.78-26.73 29.352zm-558.565 4.528c-14.967-2.078-26.985-10.597-26.846-19.048.139-8.452 12.368-14.18 27.316-12.78 14.949 1.414 26.971 9.976 26.852 19.108-.12 9.133-12.353 14.819-27.322 12.72zm79.783 11.44c-14.977-2.195-27.028-11.63-26.918-21.092.11-9.463 12.321-15.946 27.276-14.467 14.956 1.494 27.01 10.97 26.924 21.152-.088 10.182-12.303 16.623-27.282 14.406zm79.839 12.065c-14.988-2.312-27.075-12.706-26.999-23.236.076-10.53 12.265-17.813 27.227-16.255 14.963 1.574 27.054 12.01 27.004 23.297-.05 11.287-12.243 18.528-27.232 16.194zm79.894 12.691c-14.998-2.43-27.125-13.829-27.088-25.481.036-11.652 12.2-19.781 27.169-18.143 14.97 1.653 27.1 13.095 27.093 25.542-.007 12.447-12.174 20.534-27.174 18.082zm79.95 13.317c-15.008-2.547-27.18-14.996-27.187-27.827-.007-12.83 12.126-21.85 27.102-20.132 14.977 1.733 27.152 14.225 27.192 27.888.04 13.663-12.097 22.64-27.107 20.071zm80.005 13.943c-15.019-2.664-27.238-16.21-27.294-30.273-.057-14.065 12.043-24.02 27.026-22.222 14.984 1.813 27.207 15.4 27.3 30.334.092 14.935-12.011 24.848-27.032 22.161zm80.06 14.57c-15.028-2.783-27.3-17.468-27.41-32.822-.11-15.353 11.951-26.289 26.941-24.412 14.992 1.893 27.267 16.62 27.417 32.882.15 16.262-11.916 27.155-26.947 24.351zm80.117 15.194c-15.04-2.9-27.367-18.77-27.536-35.47-.17-16.698 11.85-28.659 26.847-26.702 14.999 1.972 27.33 17.885 27.542 35.53.212 17.644-11.812 29.563-26.853 26.642zm-560.387-43.18c-14.996-3.143-27.038-12.518-26.9-20.97.14-8.45 12.393-13.323 27.37-10.858 14.98 2.491 27.028 11.933 26.908 21.066-.12 9.133-12.378 13.937-27.378 10.762zm79.96 17.305c-15.013-3.32-27.091-13.657-26.981-23.12.11-9.463 12.349-15.042 27.338-12.438 14.993 2.63 27.077 13.035 26.99 23.217-.087 10.182-12.332 15.694-27.347 12.341zm80.042 18.248c-15.028-3.497-27.147-14.843-27.071-25.372.076-10.53 12.297-16.862 27.3-14.119 15.004 2.77 27.129 14.183 27.08 25.47-.05 11.286-12.278 17.55-27.309 14.02zm80.127 19.19c-15.044-3.673-27.207-16.073-27.17-27.725.036-11.652 12.236-18.781 27.25-15.9 15.017 2.91 27.186 15.376 27.18 27.823-.008 12.447-12.214 19.509-27.26 15.802zm80.21 20.133c-15.06-3.85-27.272-17.348-27.279-30.179-.007-12.83 12.167-20.802 27.194-17.78 15.029 3.047 27.247 16.612 27.287 30.275.04 13.663-12.14 21.567-27.203 17.684zm80.293 21.075c-15.075-4.027-27.34-18.669-27.396-32.733-.056-14.064 12.088-22.923 27.128-19.763 15.041 3.187 27.311 17.896 27.404 32.83.092 14.935-12.058 23.726-27.136 19.666zm80.377 22.017c-15.09-4.204-27.411-20.034-27.522-35.388-.11-15.353 12-25.144 27.052-21.845 15.054 3.325 27.38 19.223 27.53 35.485.15 16.261-11.966 25.985-27.06 21.748zm80.46 22.96c-15.106-4.381-27.487-21.445-27.656-38.144-.169-16.698 11.904-27.467 26.968-24.028 15.066 3.464 27.453 20.595 27.665 38.24.212 17.644-11.867 28.345-26.977 23.931zM29.981 471.1c-15.027-4.208-27.093-14.438-26.954-22.89.14-8.451 12.416-12.468 27.423-8.937 15.011 3.568 27.085 13.89 26.965 23.024-.12 9.132-12.404 13.056-27.434 8.803zm80.135 23.172c-15.048-4.445-27.154-15.686-27.044-25.15.11-9.462 12.377-14.138 27.402-10.409 15.028 3.767 27.143 15.101 27.056 25.283-.088 10.182-12.363 14.765-27.414 10.276zm80.247 24.43c-15.069-4.68-27.22-16.979-27.144-27.509.076-10.53 12.33-15.91 27.372-11.982 15.046 3.965 27.205 16.356 27.155 27.643-.05 11.286-12.311 16.573-27.383 11.848zm80.358 25.689c-15.09-4.917-27.29-18.317-27.252-29.97.036-11.651 12.272-17.78 27.333-13.654 15.063 4.163 27.271 17.655 27.264 30.102-.007 12.447-12.252 18.483-27.345 13.522zm80.47 26.948c-15.11-5.153-27.363-19.7-27.37-32.53-.007-12.83 12.207-19.754 27.285-15.43 15.081 4.362 27.342 19.002 27.382 32.665.04 13.663-12.183 20.492-27.297 15.295zm80.582 28.207c-15.131-5.39-27.44-21.128-27.497-35.192-.056-14.064 12.133-21.826 27.228-17.304 15.1 4.56 27.417 20.391 27.509 35.326.092 14.934-12.105 22.604-27.24 17.17zm80.693 29.465c-15.152-5.625-27.522-22.6-27.632-37.954-.11-15.353 12.05-24 27.163-19.278 15.116 4.758 27.494 21.826 27.644 38.087.15 16.262-12.019 24.816-27.175 19.145zm80.805 30.725c-15.173-5.862-27.608-24.118-27.777-40.817-.169-16.699 11.958-26.274 27.088-21.355 15.134 4.957 27.577 23.307 27.789 40.951.212 17.644-11.923 27.127-27.1 21.221zM29.241 521.141c-15.056-5.273-27.145-16.36-27.006-24.81.14-8.452 12.44-11.613 27.477-7.017 15.041 4.644 27.141 15.848 27.021 24.981-.12 9.133-12.43 12.176-27.491 6.846zm80.312 29.037c-15.083-5.57-27.217-17.714-27.107-27.177.11-9.463 12.405-13.235 27.465-8.381 15.064 4.902 27.21 17.166 27.122 27.348-.087 10.182-12.392 13.835-27.48 8.21zm80.45 30.613c-15.108-5.865-27.291-19.115-27.215-29.645.075-10.53 12.36-14.958 27.444-9.846 15.087 5.16 27.281 18.529 27.231 29.815-.05 11.287-12.345 15.596-27.46 9.676zm80.591 32.188c-15.135-6.161-27.37-20.56-27.334-32.213.037-11.652 12.309-16.781 27.415-11.411 15.11 5.418 27.357 19.936 27.35 32.383-.008 12.447-12.29 17.457-27.43 11.24zm80.73 33.763c-15.16-6.456-27.454-22.05-27.461-34.881-.007-12.83 12.248-18.705 27.377-13.078 15.133 5.676 27.436 21.389 27.476 35.052.04 13.663-12.225 19.419-27.391 12.907zm80.87 35.339c-15.187-6.752-27.54-23.587-27.597-37.65-.056-14.065 12.178-20.73 27.33-14.845 15.155 5.933 27.52 22.886 27.612 37.82.093 14.935-12.152 21.482-27.344 14.675zm81.01 36.914c-15.213-7.048-27.632-25.167-27.743-40.52-.11-15.354 12.1-22.856 27.274-16.713 15.179 6.192 27.608 24.43 27.758 40.691.15 16.262-12.07 23.645-27.289 16.542zm81.15 38.49c-15.24-7.344-27.728-26.793-27.897-43.491-.17-16.699 12.01-25.082 27.208-18.681 15.202 6.45 27.7 26.017 27.912 43.661.212 17.645-11.979 25.91-27.223 18.51z" fill="#14A4B5" mask="url(#b)"/></g><g transform="rotate(-25 3100.338 -2044.989)"><mask id="d" fill="#fff"><use xlink:href="#c"/></mask><path d="M62.516 80.12c-22.272 7.04-40.164 2.289-39.957-10.547.207-12.836 18.412-29.719 40.655-37.785 22.236-8.15 40.112-3.576 39.934 10.29-.177 13.867-18.366 30.928-40.632 38.041zM178.21 42.337c-22.239 7.42-40.139 1.767-39.975-12.56.163-14.328 18.302-32.773 40.506-41.273 22.198-8.584 40.082-3.11 39.953 12.304-.13 15.414-18.252 34.036-40.484 41.53zm115.484-33.79c-22.209 7.685-40.126.974-40.013-14.924.113-15.9 18.183-35.878 40.353-44.7 22.162-8.904 40.064-2.37 39.99 14.671-.074 17.04-18.128 37.196-40.33 44.953zm115.365-41.116c-22.176 8.059-40.113.312-40.057-17.237.056-17.55 18.047-39.216 40.18-48.467 22.124-9.333 40.045-1.762 40.033 16.985-.01 18.746-17.987 40.588-40.156 48.719zM524.25-75.626c-22.142 8.432-40.104-.415-40.113-19.695-.01-19.28 17.899-42.697 39.993-52.377 22.086-9.763 40.033-1.092 40.091 19.441.058 20.534-17.835 44.126-39.97 52.63zm115.02-45.001c-22.109 8.806-40.102-1.206-40.183-22.297-.08-21.09 17.739-46.323 39.795-56.432 22.048-10.192 40.026-.356 40.16 22.043.136 22.4-17.668 47.808-39.771 56.686zm114.85-46.943c-22.077 9.18-40.107-2.062-40.267-25.043-.16-22.982 17.566-50.094 39.583-60.632 22.01-10.621 40.025.444 40.244 24.79.219 24.345-17.49 51.633-39.56 60.885zm114.675-48.886c-22.043 9.554-40.116-2.982-40.361-27.933-.246-24.952 17.379-54.01 39.358-64.977 21.973-11.05 40.03 1.31 40.34 27.68.309 26.372-17.3 55.605-39.337 65.23zM61.35 160.94c-22.321 5.327-40.251-.801-40.044-13.637.207-12.836 18.45-28.342 40.741-34.694 22.286-6.418 40.204-.427 40.027 13.44-.178 13.866-18.409 29.51-40.724 34.891zm115.97-28.58c-22.295 5.612-40.24-1.493-40.076-15.82.163-14.328 18.346-31.32 40.608-38.014 22.255-6.76 40.188.208 40.059 15.622-.13 15.413-18.3 32.543-40.59 38.211zm115.805-24.108c-22.274 5.786-40.242-2.452-40.13-18.351.114-15.899 18.235-34.351 40.47-41.273 22.229-6.986 40.185 1.117 40.111 18.157-.074 17.04-18.182 35.628-40.451 41.467zm115.728-30.95c-22.249 6.067-40.244-3.282-40.188-20.832.055-17.55 18.105-37.613 40.31-44.87 22.2-7.323 40.183 1.89 40.171 20.637-.011 18.747-18.049 38.946-40.293 45.066zm115.599-32.408c-22.224 6.347-40.251-4.178-40.26-23.459-.01-19.28 17.964-41.019 40.14-48.613 22.169-7.659 40.184 2.73 40.242 23.264.058 20.533-17.903 42.407-40.122 48.808zM639.92 11.025c-22.2 6.628-40.264-5.137-40.345-26.228-.08-21.091 17.81-44.57 39.956-52.5 22.14-7.996 40.193 3.634 40.328 26.033.134 22.4-17.745 46.014-39.939 52.695zm115.34-35.327c-22.174 6.908-40.283-6.162-40.442-29.143-.16-22.982 17.643-48.266 39.759-56.532 22.11-8.332 40.206 4.603 40.425 28.948.218 24.345-17.573 49.764-39.742 56.727zM870.47-61.09c-22.149 7.188-40.307-7.25-40.552-32.202-.246-24.952 17.464-52.106 39.55-60.708 22.08-8.668 40.226 5.636 40.535 32.007.31 26.37-17.388 53.66-39.533 60.903zM60.183 241.76c-22.37 3.612-40.338-3.892-40.13-16.728.206-12.836 18.488-26.966 40.828-31.603 22.336-4.686 40.295 2.722 40.118 16.588-.177 13.867-18.45 28.093-40.816 31.743zm116.248-19.38c-22.352 3.805-40.341-4.752-40.178-19.08.164-14.327 18.392-29.868 40.71-34.754 22.314-4.934 40.295 3.526 40.166 18.94-.13 15.413-18.349 31.05-40.698 34.893zm116.125-14.424c-22.338 3.885-40.358-5.88-40.245-21.779.113-15.899 18.285-32.824 40.585-37.845 22.296-5.069 40.307 4.602 40.234 21.642-.074 17.04-18.238 34.06-40.574 37.982zm116.092-20.783c-22.322 4.073-40.375-6.879-40.32-24.428.056-17.55 18.164-36.011 40.443-41.276 22.274-5.312 40.318 5.545 40.307 24.292-.011 18.747-18.111 37.302-40.43 41.412zm116.005-21.76c-22.305 4.26-40.397-7.941-40.406-27.222-.01-19.28 18.029-39.342 40.286-44.85 22.252-5.555 40.336 6.553 40.394 27.086.058 20.533-17.972 40.689-40.274 44.986zm115.918-22.736c-22.288 4.449-40.425-9.07-40.506-30.16-.08-21.091 17.882-42.817 40.117-48.57 22.231-5.798 40.36 7.626 40.494 30.025.135 22.4-17.819 44.22-40.105 48.705zm115.832-23.713c-22.272 4.637-40.459-10.26-40.618-33.242-.16-22.982 17.722-46.438 39.935-52.433 22.21-6.042 40.388 8.762 40.607 33.107.218 24.345-17.655 47.896-39.924 52.568zM872.15 94.277c-22.256 4.824-40.499-11.519-40.744-36.47-.246-24.952 17.549-50.202 39.74-56.44 22.188-6.286 40.423 9.963 40.732 36.334.31 26.37-17.476 51.715-39.728 56.576zM59.017 322.582c-22.418 1.898-40.425-6.983-40.218-19.82.207-12.835 18.526-25.588 40.915-28.512 22.386-2.953 40.388 5.872 40.21 19.738-.177 13.867-18.492 26.676-40.907 28.594zm116.525-10.18c-22.408 1.998-40.443-8.01-40.28-22.338.164-14.328 18.437-28.417 40.812-31.496 22.372-3.11 40.402 6.843 40.273 22.257-.13 15.413-18.397 29.558-40.805 31.576zm116.446-4.74c-22.404 1.985-40.475-9.308-40.362-25.206.113-15.9 18.337-31.297 40.702-34.419 22.362-3.15 40.429 8.088 40.355 25.129-.074 17.04-18.293 32.492-40.695 34.495zm116.455-10.618c-22.395 2.08-40.506-10.473-40.45-28.023.055-17.55 18.221-34.408 40.573-37.68 22.349-3.301 40.455 9.199 40.444 27.946-.011 18.747-18.173 35.659-40.567 37.757zm116.411-11.11c-22.386 2.175-40.543-11.705-40.552-30.985-.01-19.28 18.094-37.664 40.432-41.087 22.336-3.451 40.488 10.375 40.546 30.908.058 20.533-18.04 38.97-40.426 41.164zm116.368-11.604c-22.379 2.27-40.587-13-40.667-34.091-.081-21.092 17.953-41.065 40.278-44.638 22.322-3.602 40.526 11.615 40.66 34.015.135 22.4-17.894 42.426-40.271 44.714zm116.324-12.097c-22.37 2.365-40.635-14.361-40.795-37.342-.16-22.982 17.8-44.61 40.112-48.333 22.308-3.752 40.569 12.92 40.787 37.266.219 24.345-17.736 46.026-40.104 48.41zm116.28-12.59c-22.362 2.46-40.69-15.787-40.935-40.738-.246-24.952 17.634-48.298 39.932-52.172 22.295-3.903 40.618 14.29 40.928 40.66.31 26.371-17.565 49.772-39.925 52.25zM57.85 403.403c-22.466.183-40.511-10.074-40.304-22.91.207-12.836 18.564-24.213 41.002-25.422 22.436-1.221 40.48 9.02 40.302 22.887-.178 13.867-18.534 25.259-41 25.444zm116.804-.98c-22.466.19-40.545-11.27-40.382-25.597.164-14.328 18.482-26.965 40.913-28.237 22.43-1.284 40.509 10.16 40.38 25.574-.13 15.414-18.446 28.066-40.911 28.26zm116.766 4.943c-22.469.085-40.592-12.734-40.479-28.633.113-15.899 18.389-29.77 40.819-30.991 22.429-1.233 40.55 11.573 40.477 28.614-.074 17.04-18.348 30.924-40.817 31.01zm116.818-.45c-22.468.087-40.638-14.07-40.582-31.62.055-17.55 18.28-32.805 40.705-34.084 22.424-1.29 40.592 12.853 40.58 31.6-.01 18.746-18.234 34.015-40.703 34.103zm116.818-.462c-22.469.09-40.69-15.468-40.7-34.749-.008-19.28 18.16-35.986 40.58-37.323 22.418-1.347 40.639 14.197 40.697 34.73.058 20.534-18.109 37.252-40.577 37.342zm116.816-.471c-22.468.091-40.747-16.933-40.828-38.024-.08-21.09 18.025-39.31 40.44-40.705 22.413-1.406 40.691 15.605 40.826 38.005.135 22.399-17.97 40.632-40.438 40.724zm116.816-.482c-22.468.094-40.811-18.461-40.97-41.443-.16-22.981 17.878-42.78 40.287-44.232 22.408-1.463 40.75 17.079 40.97 41.424.218 24.345-17.819 44.157-40.287 44.251zm116.815-.492c-22.468.095-40.88-20.055-41.126-45.006-.246-24.952 17.719-46.395 40.123-47.904 22.403-1.52 40.815 18.616 41.124 44.987.31 26.371-17.653 47.827-40.121 47.923zM48.53 483.667c-22.514-1.524-40.594-13.072-40.385-25.807.21-12.735 18.608-22.655 41.093-22.152 22.486.509 40.569 12.081 40.388 25.843-.18 13.762-18.58 23.657-41.096 22.116zm119.992 8.399C146 490.454 127.877 477.6 128.043 463.34c.166-14.259 18.53-25.39 41.018-24.856 22.489.54 40.613 13.419 40.482 28.761-.132 15.343-18.498 26.448-41.021 24.82zm120.032 8.865c-22.53-1.7-40.7-15.927-40.585-31.794.114-15.867 18.438-28.276 40.93-27.712 22.49.57 40.663 14.823 40.588 31.83-.075 17.007-18.401 29.392-40.933 27.676zm120.075 9.331c-22.538-1.787-40.762-17.457-40.707-35.015.055-17.558 18.334-31.314 40.828-30.72 22.494.601 40.72 16.296 40.71 35.052-.011 18.756-18.292 32.486-40.831 30.683zm120.115 9.797c-22.545-1.874-40.83-19.054-40.84-38.388-.012-19.333 18.216-34.503 40.712-33.878 22.497.63 40.784 17.836 40.844 38.424.06 20.588-18.17 35.733-40.716 33.842zm120.157 10.263c-22.553-1.961-40.903-20.72-40.988-41.912-.085-21.193 18.085-37.845 40.584-37.19 22.5.662 40.852 19.445 40.991 41.95.14 22.503-18.032 39.13-40.587 37.152zm120.198 10.73c-22.56-2.05-40.983-22.454-41.15-45.589-.165-23.135 17.941-41.338 40.443-40.652 22.502.692 40.927 21.121 41.153 45.625.225 24.503-17.883 42.68-40.446 40.615zm120.24 11.195c-22.568-2.137-41.07-24.255-41.324-49.417-.255-25.162 17.782-44.983 40.286-44.266 22.505.723 41.008 22.866 41.327 49.453.32 26.587-17.72 46.383-40.289 44.23zm-841.922 6.822c-22.56-3.13-40.675-15.967-40.466-28.702.21-12.735 18.643-21.366 41.174-19.257 22.532 2.131 40.654 15.031 40.473 28.793-.18 13.762-18.62 22.329-41.181 19.166zm120.256 17.238c-22.575-3.307-40.739-17.523-40.573-31.782.166-14.259 18.572-24.028 41.113-21.799 22.543 2.251 40.713 16.53 40.581 31.873-.131 15.342-18.543 25.048-41.12 21.708zm120.34 18.18c-22.59-3.483-40.808-19.146-40.694-35.012.114-15.867 18.487-26.842 41.039-24.493 22.554 2.37 40.778 18.097 40.703 35.104-.075 17.007-18.454 27.919-41.047 24.401zm120.425 19.124c-22.606-3.66-40.886-20.838-40.83-38.396.055-17.558 18.389-29.807 40.951-27.338 22.565 2.491 40.85 19.732 40.839 38.487-.011 18.756-18.35 30.941-40.96 27.247zm120.508 20.067c-22.622-3.838-40.968-22.597-40.98-41.93-.01-19.334 18.278-32.925 40.852-30.336 22.575 2.611 40.926 21.434 40.986 42.022.06 20.588-18.233 34.115-40.858 30.244zm120.591 21.01c-22.638-4.015-41.056-24.425-41.14-45.618-.086-21.192 18.152-36.193 40.736-33.484 22.585 2.731 41.01 23.205 41.149 45.709.139 22.504-18.104 37.44-40.745 33.393zm120.675 21.953c-22.653-4.192-41.15-26.32-41.316-49.456-.166-23.136 18.014-39.614 40.608-36.785 22.597 2.852 41.1 25.044 41.325 49.547.225 24.504-17.96 40.919-40.617 36.694zm120.759 22.895c-22.67-4.368-41.25-28.283-41.505-53.445-.255-25.162 17.862-43.186 40.467-40.237 22.607 2.971 41.194 26.95 41.513 53.537.32 26.587-17.803 44.547-40.475 40.145zM46.303 634.471c-22.604-4.736-40.755-18.862-40.546-31.597.21-12.735 18.679-20.076 41.254-16.362 22.58 3.754 40.74 17.981 40.559 31.743-.18 13.762-18.658 21.001-41.267 16.216zm120.522 26.076c-22.628-5.002-40.834-20.579-40.668-34.838.165-14.259 18.613-22.666 41.208-18.742 22.597 3.963 40.812 19.642 40.68 34.985-.13 15.342-18.588 23.647-41.22 18.595zm120.648 27.497c-22.651-5.269-40.918-22.365-40.804-38.232.114-15.867 18.535-25.407 41.148-21.274 22.616 4.173 40.892 21.371 40.817 38.378-.075 17.008-18.505 26.446-41.16 21.128zm120.774 28.916c-22.675-5.535-41.009-24.219-40.954-41.777.056-17.558 18.444-28.3 41.075-23.957 22.635 4.382 40.978 23.168 40.967 41.924-.01 18.755-18.408 29.395-41.088 23.81zm120.9 30.337c-22.699-5.802-41.106-26.14-41.117-45.474-.01-19.334 18.339-31.345 40.989-26.793 22.653 4.592 41.07 25.033 41.13 45.621.06 20.588-18.299 32.497-41.002 26.646zm121.026 31.756c-22.723-6.068-41.208-28.13-41.293-49.322-.085-21.193 18.22-34.541 40.888-29.78 22.673 4.802 41.167 26.966 41.307 49.47.139 22.504-18.175 35.75-40.902 29.632zm121.152 33.177c-22.746-6.335-41.317-30.188-41.483-53.323-.166-23.136 18.088-37.89 40.775-32.918 22.69 5.011 41.27 28.966 41.496 53.47.226 24.503-18.038 39.155-40.788 32.77zm121.277 34.596c-22.77-6.6-41.431-32.313-41.686-57.475-.255-25.162 17.943-41.389 40.649-36.207 22.709 5.22 41.38 31.034 41.699 57.621.32 26.587-17.887 42.712-40.662 36.061zM45.19 709.873c-22.65-6.341-40.836-21.757-40.627-34.492.21-12.735 18.714-18.787 41.335-13.467 22.625 5.376 40.824 20.931 40.644 34.693-.18 13.761-18.697 19.674-41.352 13.266zm120.787 34.915c-22.681-6.697-40.929-23.636-40.763-37.895.165-14.26 18.655-21.305 41.302-15.686 22.653 5.676 40.913 22.755 40.781 38.097-.131 15.343-18.633 22.248-41.32 15.484zM286.932 781.6c-22.712-7.053-41.027-25.584-40.913-41.45.114-15.867 18.584-23.974 41.257-18.055 22.68 5.974 41.007 24.645 40.932 41.652-.075 17.007-18.557 24.973-41.276 17.853zm121.124 38.71c-22.744-7.41-41.132-27.6-41.077-45.159.055-17.558 18.498-26.793 41.199-20.576 22.705 6.273 41.106 26.604 41.095 45.36-.01 18.756-18.467 27.85-41.217 20.375zm121.292 40.606c-22.775-7.765-41.243-29.684-41.254-49.018-.011-19.333 18.4-29.765 41.126-23.249 22.732 6.573 41.213 28.631 41.273 49.22.06 20.587-18.363 30.879-41.145 23.047zm121.46 42.503c-22.806-8.121-41.36-31.836-41.445-53.028-.085-21.193 18.288-32.89 41.041-26.074 22.759 6.871 41.324 30.726 41.464 53.23.14 22.503-18.246 34.06-41.06 25.872zm121.63 44.4c-22.84-8.477-41.484-34.055-41.65-57.19-.167-23.136 18.162-36.165 40.942-29.05 22.784 7.17 41.442 32.888 41.667 57.391.226 24.504-18.115 37.393-40.96 28.849zm121.796 46.297c-22.87-8.833-41.613-36.343-41.867-61.505-.255-25.162 18.023-39.591 40.83-32.178 22.81 7.47 41.565 35.12 41.885 61.706.319 26.587-17.972 40.877-40.848 31.977zM44.076 785.275C21.382 777.328 3.16 760.624 3.37 747.888c.21-12.735 18.75-17.498 41.415-10.572 22.673 6.998 40.91 23.881 40.73 37.643-.18 13.761-18.736 18.346-41.438 10.316zm121.053 43.754c-22.734-8.392-41.024-26.693-40.858-40.952.165-14.26 18.697-19.943 41.397-12.629 22.707 7.387 41.012 25.867 40.881 41.21-.131 15.342-18.679 20.847-41.42 12.37zm121.263 46.128c-22.774-8.838-41.137-28.803-41.023-44.67.114-15.867 18.632-22.539 41.367-14.836 22.74 7.776 41.12 27.92 41.045 44.927-.075 17.007-18.608 23.5-41.39 14.579zm121.474 48.502c-22.813-9.284-41.257-30.981-41.202-48.54.056-17.558 18.554-25.286 41.323-17.195 22.776 8.164 41.235 30.04 41.224 48.796-.011 18.756-18.525 26.306-41.345 16.939zm121.684 50.876c-22.853-9.73-41.382-33.227-41.393-52.561-.011-19.333 18.461-28.186 41.265-19.706 22.81 8.553 41.355 32.23 41.415 52.817.06 20.588-18.427 29.262-41.287 19.45zm121.895 53.25c-22.892-10.175-41.513-35.541-41.598-56.734-.085-21.193 18.355-31.237 41.193-22.368 22.845 8.94 41.482 34.486 41.62 56.99.14 22.503-18.316 32.37-41.215 22.111zm122.105 55.623c-22.932-10.62-41.65-37.922-41.817-61.058-.166-23.135 18.237-34.44 41.11-25.182 22.878 9.33 41.613 36.81 41.839 61.314.225 24.504-18.193 35.63-41.132 24.926zm122.316 57.998c-22.971-11.066-41.794-40.372-42.049-65.534-.254-25.162 18.104-37.795 41.011-28.149 22.914 9.719 41.752 39.204 42.071 65.79.32 26.588-18.055 39.041-41.033 27.893z" fill="#14A4B5" mask="url(#d)"/></g><g transform="translate(349.727 1301)"><mask id="f" fill="#fff"><use xlink:href="#e"/></mask><path d="M24.567 31.535c-8.752 2.771-15.783.901-15.702-4.151.081-5.052 7.235-11.697 15.976-14.872 8.738-3.208 15.763-1.408 15.693 4.05-.07 5.458-7.217 12.173-15.967 14.973zm45.464-14.87c-8.74 2.92-15.773.695-15.71-4.945.065-5.639 7.193-12.899 15.919-16.244 8.722-3.38 15.75-1.224 15.7 4.842-.051 6.067-7.173 13.397-15.91 16.346zm45.382-13.3c-8.728 3.024-15.769.383-15.724-5.875.044-6.258 7.145-14.121 15.857-17.594 8.71-3.504 15.744-.932 15.715 5.775-.029 6.707-7.124 14.64-15.848 17.693zm45.334-16.184c-8.714 3.172-15.762.123-15.74-6.784.021-6.908 7.091-15.436 15.789-19.077 8.694-3.673 15.736-.693 15.732 6.685-.005 7.38-7.069 15.976-15.78 19.176zm45.268-16.948c-8.702 3.32-15.76-.163-15.764-7.751-.003-7.59 7.034-16.806 15.716-20.616 8.68-3.843 15.732-.43 15.755 7.652.023 8.082-7.008 17.368-15.707 20.715zm45.2-17.712c-8.69 3.466-15.76-.474-15.792-8.776-.031-8.301 6.971-18.233 15.638-22.212 8.665-4.01 15.73-.14 15.782 8.677.053 8.816-6.943 18.817-15.629 22.311zm45.131-18.477c-8.675 3.614-15.76-.81-15.823-9.856-.063-9.046 6.902-19.717 15.555-23.865 8.649-4.18 15.728.175 15.814 9.757.086 9.582-6.873 20.323-15.546 23.964zm45.064-19.24c-8.662 3.76-15.764-1.175-15.86-10.995-.097-9.821 6.829-21.258 15.466-25.575 8.635-4.35 15.73.515 15.852 10.895.122 10.38-6.798 21.886-15.458 25.674zM24.11 63.345c-8.772 2.097-15.818-.315-15.737-5.368.082-5.052 7.25-11.155 16.01-13.655 8.758-2.526 15.8-.168 15.73 5.29-.07 5.457-7.234 11.615-16.003 13.733zm45.573-11.25c-8.762 2.21-15.814-.587-15.75-6.226.065-5.64 7.21-12.328 15.958-14.962 8.746-2.66 15.793.082 15.742 6.148-.05 6.067-7.191 12.81-15.95 15.04zm45.507-9.488c-8.753 2.277-15.814-.965-15.77-7.223.045-6.258 7.166-13.52 15.904-16.245 8.735-2.75 15.791.44 15.762 7.147-.028 6.707-7.145 14.023-15.896 16.321zm45.478-12.182c-8.743 2.388-15.815-1.292-15.793-8.2.022-6.907 7.115-14.804 15.841-17.66 8.724-2.883 15.79.744 15.786 8.123-.004 7.378-7.093 15.328-15.834 17.737zm45.427-12.756c-8.734 2.498-15.818-1.644-15.821-9.233-.004-7.589 7.06-16.145 15.774-19.134 8.711-3.015 15.79 1.074 15.814 9.156.023 8.082-7.036 16.692-15.767 19.211zM251.47 4.34c-8.724 2.608-15.823-2.022-15.854-10.324-.032-8.301 6.998-17.543 15.701-20.664 8.7-3.147 15.794 1.43 15.848 10.247.053 8.816-6.973 18.11-15.695 20.74zm45.325-13.905c-8.714 2.719-15.83-2.426-15.893-11.471-.062-9.046 6.934-18.997 15.625-22.251 8.688-3.28 15.8 1.812 15.885 11.394.086 9.582-6.905 19.587-15.617 22.328zm45.274-14.48c-8.704 2.83-15.84-2.853-15.936-12.674-.096-9.821 6.863-20.509 15.542-23.895 8.677-3.412 15.808 2.218 15.93 12.598.12 10.38-6.834 21.12-15.536 23.971zM23.65 95.157c-8.79 1.422-15.85-1.532-15.77-6.584.081-5.052 7.265-10.614 16.044-12.44 8.778-1.843 15.835 1.072 15.766 6.53-.07 5.458-7.25 11.058-16.04 12.494zm45.682-7.628c-8.783 1.498-15.853-1.87-15.789-7.51.065-5.639 7.228-11.756 15.998-13.679 8.769-1.942 15.835 1.388 15.784 7.455-.05 6.066-7.21 12.221-15.993 13.734zm45.634-5.677c-8.779 1.529-15.86-2.315-15.815-8.572.044-6.258 7.185-12.92 15.948-14.896 8.762-1.995 15.84 1.811 15.811 8.518-.029 6.707-7.167 13.406-15.944 14.95zm45.62-8.18c-8.771 1.603-15.866-2.708-15.844-9.615.022-6.908 7.138-14.174 15.893-16.246 8.753-2.091 15.844 2.182 15.84 9.56-.005 7.38-7.118 14.683-15.889 16.3zm45.587-8.565c-8.765 1.677-15.875-3.126-15.879-10.715-.003-7.588 7.085-15.485 15.832-17.653 8.744-2.186 15.85 2.58 15.873 10.661.023 8.082-7.062 16.015-15.826 17.707zm45.552-8.949c-8.758 1.751-15.885-3.57-15.917-11.871-.032-8.302 7.027-16.853 15.765-19.117 8.736-2.282 15.86 3.001 15.913 11.818.053 8.816-7.003 17.405-15.76 19.17zm45.519-9.333c-8.752 1.825-15.9-4.04-15.962-13.085-.063-9.045 6.964-18.277 15.693-20.637 8.728-2.378 15.872 3.449 15.958 13.03.085 9.583-6.938 18.853-15.69 20.692zm45.484-9.718c-8.745 1.9-15.914-4.533-16.01-14.354-.097-9.821 6.895-19.76 15.616-22.215 8.72-2.474 15.885 3.921 16.007 14.301.121 10.38-6.868 20.355-15.613 22.268zM23.192 126.968c-8.81.747-15.886-2.748-15.804-7.8.08-5.053 7.28-10.073 16.078-11.223 8.797-1.163 15.871 2.31 15.801 7.769-.07 5.457-7.266 10.5-16.075 11.254zm45.791-4.007c-8.806.787-15.893-3.153-15.829-8.792.064-5.64 7.245-11.185 16.038-12.397 8.791-1.223 15.877 2.694 15.826 8.76-.051 6.067-7.23 11.635-16.035 12.429zm45.76-1.866c-8.804.782-15.906-3.663-15.861-9.92.044-6.258 7.205-12.319 15.994-13.548 8.788-1.24 15.888 3.184 15.859 9.89-.03 6.708-7.189 12.79-15.992 13.578zm45.763-4.178c-8.8.818-15.918-4.123-15.896-11.03.022-6.908 7.16-13.543 15.944-14.831 8.783-1.3 15.898 3.62 15.893 11-.004 7.378-7.141 14.035-15.941 14.86zm45.746-4.373c-8.797.856-15.932-4.607-15.936-12.196-.003-7.59 7.11-14.825 15.889-16.172 8.777-1.358 15.91 4.084 15.933 12.165.023 8.082-7.09 15.34-15.886 16.203zm45.73-4.568c-8.795.894-15.95-5.117-15.982-13.418-.032-8.302 7.055-16.163 15.828-17.57 8.772-1.417 15.926 4.572 15.979 13.389.053 8.816-7.032 16.699-15.826 17.6zm45.71-4.761c-8.79.93-15.968-5.653-16.03-14.698-.063-9.046 6.995-17.558 15.762-19.024 8.767-1.477 15.943 5.086 16.029 14.668.086 9.582-6.97 18.116-15.76 19.054zm45.695-4.956c-8.787.969-15.99-6.213-16.086-16.034-.096-9.821 6.93-19.01 15.692-20.535 8.762-1.536 15.962 5.624 16.084 16.004.121 10.38-6.903 19.59-15.69 20.565zM22.733 158.78c-8.828.072-15.92-3.965-15.838-9.017.081-5.052 7.295-9.53 16.112-10.006 8.817-.48 15.908 3.55 15.838 9.008-.07 5.458-7.283 9.942-16.112 10.015zm45.9-.386c-8.828.076-15.932-4.435-15.868-10.074.064-5.64 7.263-10.614 16.078-11.114 8.814-.506 15.918 3.999 15.867 10.066-.05 6.066-7.248 11.046-16.076 11.122zm45.886 1.946c-8.83.034-15.951-5.012-15.907-11.27.045-6.258 7.227-11.717 16.04-12.198 8.815-.485 15.936 4.555 15.907 11.262-.029 6.708-7.21 12.172-16.04 12.206zm45.906-.177c-8.829.034-15.969-5.538-15.947-12.445.022-6.908 7.183-12.913 15.996-13.416 8.811-.508 15.951 5.059 15.947 12.437-.005 7.38-7.166 13.39-15.996 13.424zm45.906-.182c-8.83.035-15.99-6.088-15.993-13.677-.004-7.589 7.136-14.164 15.946-14.69 8.81-.53 15.97 5.588 15.993 13.67.023 8.081-7.116 14.662-15.946 14.697zm45.906-.185c-8.83.036-16.013-6.665-16.045-14.966-.031-8.302 7.084-15.473 15.892-16.022 8.808-.553 15.99 6.142 16.044 14.959.053 8.816-7.062 15.993-15.891 16.029zm45.905-.19c-8.83.037-16.038-7.266-16.1-16.312-.063-9.045 7.025-16.838 15.831-17.41 8.806-.575 16.014 6.723 16.1 16.305.086 9.582-7.002 17.38-15.831 17.417zm45.904-.194c-8.829.038-16.064-7.893-16.16-17.714-.097-9.821 6.962-18.26 15.766-18.855 8.804-.598 16.04 7.327 16.161 17.707.122 10.38-6.937 18.825-15.767 18.862zm-324.975 30.96c-8.848-.6-15.953-5.145-15.87-10.157.082-5.013 7.312-8.918 16.148-8.72 8.836.2 15.942 4.756 15.871 10.172-.07 5.417-7.301 9.312-16.15 8.705zm47.153 3.306c-8.85-.634-15.972-5.694-15.907-11.306.065-5.612 7.282-9.993 16.119-9.783 8.837.212 15.96 5.281 15.908 11.32-.052 6.039-7.269 10.41-16.12 9.769zm47.17 3.49c-8.854-.67-15.995-6.27-15.95-12.515.045-6.245 7.246-11.13 16.084-10.907 8.839.224 15.98 5.834 15.95 12.528-.029 6.694-7.23 11.569-16.085 10.893zm47.185 3.672c-8.857-.703-16.018-6.871-15.997-13.782.022-6.91 7.205-12.325 16.045-12.091 8.84.236 16.002 6.414 15.997 13.796-.004 7.382-7.188 12.787-16.045 12.077zm47.202 3.856c-8.86-.738-16.045-7.5-16.05-15.11-.004-7.609 7.159-13.58 16-13.334 8.84.248 16.026 7.02 16.05 15.124.024 8.103-7.14 14.064-16 13.32zm47.218 4.04c-8.863-.772-16.074-8.156-16.107-16.497-.034-8.341 7.106-14.896 15.948-14.638 8.842.26 16.054 7.654 16.108 16.511.055 8.858-7.086 15.402-15.95 14.624zm47.234 4.223c-8.866-.807-16.105-8.838-16.17-17.944-.066-9.106 7.05-16.27 15.892-16 8.843.272 16.083 8.313 16.172 17.957.088 9.645-7.028 16.8-15.894 15.987zm47.25 4.406c-8.868-.84-16.138-9.546-16.238-19.45-.1-9.904 6.987-17.705 15.83-17.423 8.845.284 16.116 9 16.241 19.464.126 10.465-6.963 18.256-15.832 17.409zm-330.85 2.685c-8.865-1.232-15.984-6.284-15.901-11.297.082-5.012 7.326-8.41 16.18-7.58 8.854.84 15.975 5.917 15.904 11.334-.07 5.416-7.316 8.788-16.183 7.543zm47.258 6.785c-8.872-1.302-16.01-6.897-15.945-12.51.066-5.611 7.299-9.456 16.157-8.58 8.858.887 15.999 6.507 15.947 12.546-.052 6.039-7.287 9.859-16.16 8.544zm47.29 7.156c-8.878-1.371-16.037-7.536-15.992-13.781.045-6.245 7.265-10.565 16.127-9.64 8.863.933 16.025 7.123 15.995 13.817-.03 6.694-7.252 10.988-16.13 9.604zm47.323 7.527c-8.884-1.44-16.067-8.202-16.045-15.113.022-6.91 7.226-11.732 16.093-10.76 8.867.98 16.052 7.767 16.048 15.149-.004 7.382-7.211 12.178-16.096 10.724zm47.356 7.898c-8.89-1.51-16.1-8.894-16.104-16.504-.004-7.61 7.183-12.959 16.054-11.94 8.87 1.028 16.082 8.437 16.106 16.54.024 8.104-7.165 13.428-16.056 11.904zm47.389 8.27c-8.896-1.58-16.134-9.614-16.167-17.955-.034-8.342 7.133-14.246 16.008-13.18 8.875 1.076 16.115 9.134 16.17 17.991.055 8.858-7.114 14.737-16.011 13.144zm47.421 8.64c-8.902-1.65-16.17-10.36-16.236-19.465-.065-9.106 7.08-15.592 15.958-14.479 8.88 1.123 16.15 9.857 16.24 19.502.088 9.645-7.058 16.105-15.962 14.442zm47.455 9.012c-8.908-1.72-16.21-11.132-16.31-21.036-.1-9.904 7.019-16.998 15.902-15.837 8.884 1.17 16.188 10.607 16.314 21.072.125 10.465-6.997 17.534-15.906 15.801zm-331.93-25.61c-8.882-1.863-16.015-7.423-15.933-12.436.083-5.012 7.34-7.902 16.212-6.44 8.873 1.477 16.01 7.077 15.938 12.494-.07 5.416-7.332 8.266-16.216 6.382zm47.362 10.264c-8.892-1.969-16.046-8.1-15.981-13.712.065-5.613 7.314-8.922 16.193-7.377 8.88 1.56 16.038 7.731 15.987 13.77-.052 6.039-7.305 9.308-16.199 7.32zm47.411 10.823c-8.901-2.074-16.08-8.803-16.035-15.048.045-6.245 7.284-10 16.17-8.374 8.888 1.643 16.07 8.412 16.04 15.106-.029 6.694-7.272 10.41-16.175 8.316zm47.46 11.381c-8.91-2.178-16.114-9.532-16.093-16.443.022-6.911 7.248-11.14 16.142-9.43 8.894 1.725 16.103 9.12 16.098 16.501-.004 7.383-7.234 11.57-16.146 9.372zm47.511 11.94c-8.92-2.283-16.153-10.288-16.158-17.898-.004-7.61 7.207-12.337 16.108-10.545 8.902 1.807 16.139 9.853 16.162 17.956.024 8.103-7.19 12.79-16.112 10.488zm47.56 12.5c-8.93-2.388-16.194-11.072-16.227-19.413-.034-8.342 7.16-13.596 16.068-11.721 8.909 1.89 16.177 10.613 16.232 19.47.054 8.858-7.142 14.072-16.073 11.664zm47.609 13.058c-8.939-2.493-16.237-11.882-16.302-20.988-.065-9.106 7.108-14.913 16.023-12.956 8.917 1.972 16.219 11.401 16.307 21.046.089 9.644-7.088 15.411-16.028 12.898zm47.658 13.617c-8.948-2.598-16.281-12.718-16.381-22.622-.1-9.904 7.05-16.29 15.973-14.251 8.924 2.055 16.261 12.215 16.387 22.68.125 10.465-7.03 16.811-15.979 14.193zM17.758 279.406c-8.9-2.496-16.047-8.564-15.965-13.576.083-5.013 7.354-7.395 16.243-5.3 8.892 2.115 16.043 8.238 15.972 13.654-.07 5.417-7.347 7.744-16.25 5.222zm47.466 13.742c-8.913-2.636-16.084-9.303-16.019-14.915.065-5.613 7.331-8.386 16.231-6.174 8.902 2.234 16.077 8.956 16.026 14.995-.052 6.039-7.323 8.757-16.238 6.094zm47.532 14.49c-8.925-2.777-16.123-10.07-16.078-16.316.045-6.245 7.303-9.435 16.213-7.106 8.912 2.352 16.114 9.7 16.085 16.395-.03 6.694-7.292 9.829-16.22 7.027zm47.598 15.236c-8.938-2.917-16.164-10.864-16.142-17.775.021-6.91 7.27-10.546 16.19-8.099 8.922 2.47 16.153 10.472 16.149 17.854-.004 7.382-7.257 10.962-16.197 8.02zm47.664 15.982c-8.95-3.056-16.207-11.683-16.212-19.293-.004-7.61 7.23-11.716 16.162-9.15 8.933 2.586 16.195 11.268 16.219 19.372.023 8.103-7.216 12.154-16.169 9.071zm47.73 16.73c-8.962-3.197-16.253-12.531-16.286-20.873-.034-8.34 7.186-12.945 16.127-10.262 8.944 2.704 16.24 12.094 16.294 20.951.055 8.858-7.17 13.406-16.135 10.183zm47.797 17.475c-8.975-3.336-16.302-13.404-16.367-22.51-.066-9.106 7.137-14.234 16.089-11.434 8.953 2.822 16.285 12.945 16.374 22.59.088 9.644-7.119 14.717-16.096 11.354zm47.862 18.223c-8.987-3.477-16.352-14.305-16.452-24.209-.1-9.903 7.082-15.583 16.044-12.665 8.965 2.94 16.335 13.823 16.46 24.288.126 10.464-7.062 16.089-16.052 12.586zm-334.086-82.2c-8.919-3.128-16.08-9.703-15.997-14.715.082-5.013 7.368-6.888 16.275-4.162 8.91 2.755 16.076 9.4 16.005 14.816-.07 5.417-7.362 7.222-16.283 4.06zm47.57 17.221c-8.934-3.303-16.121-10.506-16.056-16.118.065-5.613 7.347-7.85 16.268-4.97 8.923 2.907 16.116 10.18 16.065 16.219-.052 6.039-7.34 8.206-16.277 4.87zm47.652 18.156c-8.949-3.478-16.165-11.337-16.12-17.582.045-6.245 7.322-8.87 16.256-5.84 8.936 3.061 16.159 10.99 16.13 17.684-.03 6.694-7.313 9.25-16.266 5.738zm47.736 19.09c-8.965-3.653-16.213-12.194-16.19-19.104.02-6.911 7.29-9.953 16.238-6.768 8.95 3.213 16.204 11.824 16.2 19.206-.005 7.382-7.28 10.354-16.248 6.667zm47.818 20.025c-8.98-3.829-16.262-13.078-16.266-20.687-.004-7.61 7.255-11.094 16.216-7.757 8.964 3.367 16.251 12.686 16.275 20.79.024 8.103-7.241 11.517-16.225 7.654zm47.901 20.96c-8.996-4.005-16.313-13.99-16.346-22.33-.034-8.342 7.213-12.296 16.187-8.805 8.978 3.52 16.301 13.574 16.356 22.431.055 8.858-7.198 12.741-16.197 8.703zm47.984 21.893c-9.011-4.18-16.367-14.926-16.433-24.032-.065-9.106 7.167-13.556 16.155-9.912 8.99 3.672 16.353 14.488 16.442 24.133.088 9.645-7.15 14.024-16.164 9.81zm48.067 22.828c-9.027-4.356-16.424-15.89-16.524-25.794-.1-9.904 7.114-14.876 16.116-11.08 9.004 3.826 16.407 15.43 16.532 25.896.126 10.464-7.095 15.366-16.124 10.978z" fill="#14A4B5" mask="url(#f)"/></g><g transform="scale(-1 1) rotate(10 -6335.218 -598.923)"><mask id="h" fill="#fff"><use xlink:href="#g"/></mask><path d="M17.364 22.248c-6.186 1.955-11.156.636-11.098-2.929.057-3.564 5.113-8.252 11.291-10.492 6.176-2.263 11.141-.993 11.092 2.857-.05 3.851-5.101 8.589-11.285 10.564zm32.133-10.491c-6.177 2.06-11.148.49-11.103-3.488.046-3.979 5.083-9.1 11.25-11.461C55.81-5.576 60.778-4.055 60.742.225c-.036 4.28-5.069 9.451-11.244 11.532zm32.075-9.383c-6.168 2.134-11.144.27-11.113-4.145.031-4.414 5.05-9.962 11.208-12.412 6.155-2.473 11.127-.658 11.107 4.074C92.754-5.377 87.739.22 81.572 2.374zm32.043-11.418c-6.16 2.238-11.141.087-11.126-4.786.015-4.874 5.013-10.89 11.16-13.459 6.145-2.591 11.122-.489 11.12 4.717-.004 5.205-4.997 11.27-11.154 13.528zM145.609-21c-6.15 2.341-11.139-.115-11.141-5.47-.003-5.353 4.971-11.856 11.108-14.544 6.134-2.71 11.119-.303 11.135 5.399.016 5.702-4.954 12.253-11.102 14.615zm31.947-12.496c-6.141 2.445-11.139-.335-11.161-6.192-.023-5.857 4.927-12.863 11.053-15.67 6.124-2.83 11.117-.1 11.154 6.12.038 6.22-4.907 13.276-11.046 15.742zm31.898-13.036c-6.131 2.55-11.139-.572-11.183-6.954-.045-6.381 4.878-13.91 10.994-16.836 6.113-2.95 11.117.123 11.177 6.883.061 6.76-4.858 14.338-10.988 16.907zm31.851-13.575c-6.122 2.653-11.142-.828-11.21-7.756-.068-6.929 4.827-14.998 10.932-18.043 6.103-3.069 11.118.363 11.204 7.686.086 7.323-4.805 15.44-10.926 18.113zM17.04 44.691c-6.2 1.479-11.18-.223-11.122-3.787.057-3.565 5.124-7.87 11.315-9.634 6.19-1.782 11.167-.119 11.118 3.732-.05 3.85-5.113 8.194-11.311 9.689zm32.21-7.937c-6.192 1.559-11.176-.414-11.131-4.393.045-3.978 5.096-8.697 11.279-10.556 6.181-1.876 11.162.058 11.126 4.338-.036 4.28-5.083 9.037-11.274 10.611zm32.165-6.694c-6.187 1.607-11.178-.681-11.146-5.096.031-4.415 5.064-9.539 11.24-11.46 6.174-1.94 11.161.31 11.14 5.041-.02 4.732-5.05 9.894-11.234 11.515zm32.143-8.594c-6.18 1.684-11.178-.912-11.162-5.785.015-4.873 5.028-10.445 11.196-12.46 6.166-2.033 11.16.525 11.157 5.73-.003 5.207-5.013 10.815-11.191 12.515zm32.107-9c-6.173 1.763-11.18-1.16-11.182-6.514-.003-5.354 4.99-11.39 11.149-13.499 6.157-2.127 11.16.758 11.177 6.46.016 5.702-4.973 11.776-11.144 13.553zm32.071-9.404c-6.165 1.84-11.183-1.427-11.205-7.284-.023-5.856 4.947-12.376 11.097-14.578 6.15-2.22 11.164 1.009 11.201 7.229.038 6.22-4.928 12.777-11.093 14.633zm32.036-9.81c-6.16 1.918-11.189-1.711-11.233-8.093-.044-6.382 4.9-13.403 11.043-15.698 6.141-2.314 11.167 1.278 11.228 8.038.06 6.76-4.88 13.82-11.038 15.753zm32-10.216c-6.153 1.997-11.196-2.013-11.264-8.942-.068-6.928 4.85-14.468 10.985-16.857 6.132-2.407 11.172 1.565 11.258 8.888.086 7.322-4.83 14.9-10.98 16.911zM16.715 67.133c-6.213 1.004-11.204-1.08-11.146-4.645.057-3.564 5.135-7.488 11.34-8.775 6.203-1.302 11.192.755 11.142 4.606-.05 3.85-5.124 7.801-11.336 8.814zm32.287-5.381c-6.208 1.056-11.204-1.32-11.16-5.298.046-3.979 5.11-8.294 11.308-9.651 6.198-1.37 11.192.979 11.156 5.26-.036 4.28-5.096 8.622-11.304 9.689zm32.254-4.006c-6.205 1.08-11.21-1.632-11.178-6.047.031-4.415 5.078-9.115 11.272-10.51 6.193-1.407 11.195 1.279 11.175 6.01-.02 4.732-5.066 9.459-11.27 10.547zm32.244-5.77c-6.2 1.13-11.214-1.91-11.199-6.784.016-4.873 5.045-10 11.233-11.462 6.187-1.475 11.198 1.54 11.195 6.746-.003 5.206-5.03 10.358-11.23 11.5zm32.22-6.043c-6.195 1.183-11.22-2.205-11.223-7.56-.002-5.353 5.008-10.924 11.19-12.453 6.18-1.543 11.203 1.82 11.219 7.521.016 5.702-4.992 11.299-11.186 12.492zm32.196-6.313c-6.19 1.235-11.228-2.519-11.25-8.375-.023-5.857 4.966-11.89 11.142-13.487 6.175-1.61 11.21 2.117 11.247 8.337.038 6.22-4.95 12.28-11.139 13.525zm32.172-6.585c-6.186 1.287-11.237-2.85-11.282-9.231-.044-6.382 4.923-12.895 11.092-14.56 6.169-1.677 11.218 2.433 11.279 9.194.06 6.76-4.904 13.3-11.089 14.597zm32.148-6.856c-6.181 1.34-11.248-3.198-11.316-10.127-.069-6.929 4.874-13.94 11.037-15.672 6.163-1.746 11.228 2.766 11.314 10.089.085 7.323-4.854 14.36-11.035 15.71zM16.392 89.576c-6.227.527-11.228-1.939-11.17-5.503.057-3.565 5.145-7.106 11.363-7.918 6.218-.82 11.218 1.63 11.169 5.481-.05 3.85-5.136 7.408-11.362 7.94zm32.364-2.827c-6.224.555-11.233-2.224-11.187-6.203.045-3.978 5.12-7.89 11.335-8.745 6.214-.864 11.222 1.9 11.186 6.18-.036 4.28-5.11 8.208-11.334 8.768zM81.1 85.433c-6.223.551-11.242-2.584-11.21-7 .03-4.414 5.093-8.69 11.304-9.557 6.211-.875 11.23 2.246 11.209 6.978-.02 4.732-5.08 9.023-11.303 9.579zm32.345-2.948c-6.22.577-11.25-2.909-11.235-7.782.015-4.873 5.061-9.554 11.27-10.463 6.206-.917 11.235 2.554 11.232 7.76-.003 5.206-5.047 9.902-11.267 10.485zm32.333-3.085c-6.218.604-11.26-3.25-11.263-8.605-.003-5.353 5.025-10.458 11.23-11.409 6.203-.958 11.245 2.881 11.261 8.583.016 5.702-5.01 10.822-11.228 11.43zm32.32-3.223c-6.215.63-11.272-3.61-11.294-9.466-.023-5.857 4.986-11.403 11.187-12.395 6.2-1 11.256 3.225 11.293 9.445.038 6.22-4.97 11.781-11.185 12.416zm32.31-3.359c-6.214.657-11.287-3.988-11.331-10.37-.045-6.38 4.944-12.386 11.14-13.42 6.197-1.042 11.269 3.587 11.33 10.348.06 6.76-4.927 12.78-11.14 13.442zm32.296-3.496c-6.211.683-11.302-4.384-11.37-11.312-.068-6.929 4.898-13.412 11.091-14.488 6.193-1.083 11.282 3.968 11.368 11.291.086 7.323-4.879 13.82-11.09 14.51zM16.068 112.02c-6.24.05-11.252-2.797-11.195-6.362.058-3.564 5.157-6.723 11.388-7.06 6.232-.338 11.244 2.506 11.194 6.356-.05 3.85-5.147 7.014-11.387 7.066zm32.442-.272c-6.24.053-11.262-3.13-11.216-7.108.045-3.979 5.133-7.488 11.363-7.841 6.23-.357 11.251 2.822 11.216 7.102-.036 4.28-5.124 7.793-11.363 7.847zm32.431 1.372c-6.24.024-11.274-3.536-11.243-7.95.032-4.415 5.108-8.267 11.338-8.606 6.23-.343 11.262 3.214 11.242 7.945-.02 4.732-5.096 8.588-11.337 8.611zm32.446-.125c-6.24.025-11.287-3.906-11.272-8.78.016-4.873 5.078-9.11 11.306-9.465 6.228-.358 11.274 3.57 11.271 8.775-.003 5.206-5.064 9.446-11.305 9.47zm32.446-.128c-6.24.025-11.302-4.295-11.304-9.649-.003-5.354 5.043-9.993 11.27-10.364 6.227-.374 11.288 3.942 11.304 9.644.016 5.702-5.03 10.344-11.27 10.37zm32.445-.13c-6.24.025-11.317-4.702-11.34-10.56-.022-5.856 5.007-10.915 11.232-11.302 6.226-.39 11.302 4.333 11.34 10.553.037 6.22-4.991 11.283-11.232 11.308zm32.446-.134c-6.24.026-11.336-5.127-11.38-11.508-.044-6.382 4.966-11.88 11.19-12.283 6.224-.406 11.318 4.742 11.379 11.503.06 6.76-4.949 12.262-11.19 12.288zm32.445-.137c-6.24.026-11.355-5.569-11.423-12.498-.068-6.928 4.921-12.883 11.144-13.302 6.223-.422 11.336 5.17 11.422 12.493.086 7.322-4.903 13.28-11.143 13.307zm-229.69 21.842c-6.253-.423-11.275-3.63-11.217-7.166.059-3.536 5.168-6.291 11.414-6.151 6.245.14 11.268 3.354 11.217 7.176-.05 3.821-5.16 6.569-11.414 6.141zm33.327 2.332c-6.255-.447-11.288-4.016-11.242-7.976.046-3.96 5.146-7.05 11.392-6.902 6.246.15 11.28 3.726 11.244 7.986-.037 4.26-5.138 7.345-11.394 6.892zm33.34 2.462c-6.258-.472-11.305-4.423-11.273-8.829.031-4.406 5.121-7.851 11.368-7.695 6.247.158 11.294 4.116 11.273 8.839-.02 4.723-5.11 8.162-11.369 7.685zm33.35 2.591c-6.26-.496-11.322-4.847-11.307-9.723.016-4.876 5.093-8.695 11.34-8.53 6.248.166 11.31 4.525 11.307 9.733-.003 5.208-5.08 9.02-11.34 8.52zm33.361 2.72c-6.262-.52-11.34-5.29-11.343-10.659-.003-5.369 5.06-9.581 11.308-9.408 6.248.176 11.327 4.953 11.344 10.67.017 5.717-5.046 9.923-11.309 9.398zm33.374 2.85c-6.264-.544-11.361-5.753-11.385-11.638-.023-5.885 5.023-10.509 11.272-10.327 6.25.184 11.347 5.4 11.386 11.649.038 6.249-5.009 10.866-11.273 10.317zm33.384 2.98c-6.266-.569-11.383-6.235-11.429-12.66-.046-6.424 4.983-11.478 11.233-11.288 6.25.192 11.367 5.865 11.43 12.67.063 6.804-4.967 11.851-11.234 11.278zm33.397 3.109c-6.269-.594-11.407-6.735-11.478-13.722-.07-6.988 4.939-12.492 11.19-12.293 6.25.201 11.39 6.35 11.478 13.733.089 7.383-4.922 12.88-11.19 12.282zM13.17 155.245c-6.266-.869-11.298-4.434-11.24-7.97.059-3.536 5.179-5.933 11.437-5.347 6.258.591 11.291 4.174 11.24 7.995-.05 3.821-5.17 6.2-11.437 5.322zm33.4 4.787c-6.27-.918-11.314-4.866-11.268-8.825.046-3.96 5.158-6.673 11.419-6.054 6.261.625 11.308 4.59 11.271 8.85-.036 4.261-5.15 6.956-11.421 6.029zm33.425 5.048c-6.274-.967-11.335-5.316-11.303-9.722.032-4.406 5.135-7.454 11.399-6.802 6.264.659 11.326 5.026 11.305 9.748-.021 4.723-5.126 7.753-11.4 6.776zm33.448 5.31c-6.28-1.016-11.356-5.786-11.34-10.661.014-4.876 5.107-8.277 11.373-7.592 6.268.692 11.346 5.48 11.343 10.688-.003 5.208-5.097 8.592-11.376 7.566zm33.47 5.573c-6.283-1.066-11.378-6.275-11.381-11.644-.004-5.368 5.076-9.142 11.346-8.423 6.27.725 11.367 5.952 11.384 11.669.017 5.717-5.065 9.473-11.349 8.398zm33.494 5.834c-6.287-1.115-11.403-6.782-11.427-12.667-.023-5.885 5.042-10.05 11.315-9.298 6.273.758 11.39 6.443 11.429 12.692.039 6.25-5.028 10.397-11.317 9.273zm33.517 6.096c-6.292-1.164-11.429-7.309-11.475-13.733-.046-6.424 5.003-11 11.279-10.215 6.276.792 11.415 6.955 11.478 13.759.062 6.804-4.989 11.362-11.282 10.189zm33.54 6.358c-6.295-1.213-11.456-7.854-11.527-14.841-.07-6.987 4.961-11.992 11.24-11.173 6.279.825 11.441 7.483 11.53 14.866.088 7.383-4.945 12.37-11.242 11.148zM12.862 176.183c-6.279-1.315-11.32-5.237-11.262-8.774.058-3.536 5.188-5.575 11.458-4.543 6.272 1.042 11.315 4.993 11.265 8.814-.05 3.822-5.182 5.832-11.461 4.503zm33.474 7.241c-6.285-1.389-11.341-5.714-11.295-9.674.046-3.96 5.17-6.294 11.445-5.204 6.277 1.1 11.336 5.454 11.3 9.714-.037 4.26-5.164 6.567-11.45 5.164zm33.51 7.636c-6.291-1.463-11.365-6.21-11.333-10.617.031-4.406 5.148-7.055 11.428-5.907 6.282 1.158 11.358 5.934 11.337 10.657-.02 4.722-5.14 7.343-11.432 5.867zm33.545 8.03c-6.298-1.538-11.39-6.726-11.375-11.602.015-4.875 5.122-7.858 11.408-6.652 6.287 1.217 11.382 6.433 11.379 11.641-.003 5.209-5.113 8.163-11.412 6.612zm33.58 8.423c-6.305-1.61-11.418-7.259-11.42-12.627-.004-5.369 5.093-8.704 11.384-7.44 6.292 1.275 11.407 6.951 11.423 12.668.017 5.717-5.082 9.024-11.388 7.4zm33.614 8.819c-6.311-1.685-11.446-7.812-11.47-13.697-.023-5.885 5.061-9.591 11.358-8.269 6.297 1.333 11.434 7.488 11.472 13.737.039 6.249-5.048 9.927-11.36 8.229zm33.65 9.212c-6.318-1.759-11.476-8.383-11.522-14.807-.047-6.424 5.024-10.521 11.325-9.14 6.302 1.39 11.463 8.043 11.525 14.847.063 6.804-5.01 10.873-11.329 9.1zm33.684 9.607c-6.324-1.833-11.507-8.973-11.578-15.96-.071-6.987 4.983-11.493 11.29-10.054 6.307 1.45 11.493 8.618 11.582 16 .088 7.383-4.969 11.86-11.294 10.014zm-235.367-38.03c-6.29-1.76-11.342-6.041-11.284-9.578.059-3.536 5.198-5.217 11.481-3.74 6.284 1.494 11.339 5.813 11.289 9.634-.05 3.822-5.193 5.464-11.486 3.684zm33.549 9.696c-6.3-1.86-11.368-6.564-11.322-10.523.046-3.96 5.181-5.916 11.472-4.356 6.291 1.576 11.363 6.319 11.326 10.579-.036 4.26-5.175 6.178-11.476 4.3zm33.595 10.222c-6.309-1.959-11.396-7.105-11.364-11.51.032-4.406 5.162-6.657 11.46-5.014 6.298 1.659 11.389 6.844 11.368 11.566-.02 4.723-5.154 6.935-11.464 4.958zm33.642 10.749c-6.318-2.058-11.425-7.664-11.41-12.54.016-4.876 5.138-7.44 11.443-5.714 6.307 1.742 11.417 7.388 11.414 12.596-.003 5.208-5.129 7.734-11.447 5.658zm33.688 11.276c-6.326-2.157-11.455-8.243-11.458-13.612-.003-5.369 5.11-8.265 11.423-6.456 6.313 1.825 11.446 7.95 11.463 13.668.017 5.716-5.1 8.574-11.428 6.4zm33.735 11.802c-6.334-2.255-11.487-8.84-11.51-14.725-.025-5.885 5.078-9.133 11.398-7.24 6.321 1.908 11.478 8.532 11.516 14.78.04 6.25-5.067 9.459-11.404 7.185zm33.782 12.33c-6.343-2.355-11.522-9.457-11.568-15.882-.046-6.424 5.045-10.042 11.372-8.066 6.328 1.99 11.51 9.132 11.573 15.936.063 6.805-5.031 10.384-11.377 8.011zm33.83 12.855c-6.353-2.453-11.559-10.092-11.63-17.079-.07-6.987 5.007-10.994 11.341-8.935 6.336 2.074 11.545 9.752 11.634 17.135.088 7.383-4.992 11.35-11.346 8.88zM12.241 218.06C5.939 215.852.878 211.214.936 207.678c.058-3.537 5.207-4.86 11.503-2.936 6.297 1.943 11.362 6.631 11.312 10.453-.05 3.82-5.204 5.094-11.509 2.864zm33.622 12.15c-6.314-2.33-11.394-7.412-11.348-11.372.046-3.96 5.193-5.538 11.498-3.507 6.307 2.052 11.391 7.183 11.354 11.444-.036 4.26-5.188 5.789-11.504 3.435zm33.68 12.81c-6.325-2.455-11.425-8-11.393-12.405.031-4.406 5.175-6.259 11.49-4.12 6.315 2.16 11.42 7.753 11.4 12.476-.021 4.722-5.17 6.525-11.496 4.048zm33.74 13.467c-6.337-2.578-11.46-8.603-11.444-13.478.015-4.876 5.153-7.022 11.477-4.775 6.326 2.267 11.453 8.342 11.45 13.55-.003 5.208-5.145 7.304-11.483 4.703zm33.797 14.128c-6.347-2.702-11.494-9.227-11.497-14.596-.003-5.368 5.128-7.826 11.462-5.472 6.335 2.375 11.486 8.95 11.503 14.667.016 5.717-5.119 8.126-11.468 5.4zm33.856 14.786c-6.358-2.825-11.53-9.869-11.554-15.754-.023-5.884 5.099-8.674 11.442-6.21 6.345 2.482 11.521 9.575 11.56 15.824.038 6.25-5.088 8.989-11.448 6.14zm33.915 15.446c-6.37-2.949-11.569-10.53-11.615-16.955-.046-6.424 5.065-9.563 11.418-6.992 6.355 2.59 11.558 10.221 11.62 17.026.063 6.804-5.052 9.893-11.423 6.921zm33.972 16.105c-6.38-3.072-11.608-11.21-11.678-18.197-.071-6.988 5.028-10.495 11.39-7.817 6.364 2.699 11.597 10.886 11.685 18.27.09 7.382-5.014 10.84-11.397 7.744z" fill="#14A4B5" mask="url(#h)"/></g><g transform="rotate(-23 7891.466 -34474.842)"><mask id="j" fill="#fff"><use xlink:href="#i"/></mask><path d="M133.678 171.18c-47.625 15.043-85.883 4.891-85.44-22.534.442-27.424 39.37-63.496 86.931-80.729 47.547-17.412 85.772-7.64 85.392 21.985-.38 29.627-39.273 66.079-86.883 81.278zm247.385-80.722c-47.553 15.853-85.828 3.774-85.479-26.837.35-30.611 39.135-70.019 86.615-88.181 47.464-18.34 85.706-6.643 85.43 26.289-.276 32.931-39.028 72.72-86.566 88.729zM628 18.263c-47.489 16.42-85.8 2.082-85.558-31.887.241-33.968 38.879-76.655 86.285-95.503 47.39-19.024 85.668-5.062 85.51 31.346-.158 36.407-38.762 79.47-86.237 96.044zm246.684-87.847c-47.418 17.219-85.772.668-85.653-36.828.118-37.496 38.59-83.786 85.914-103.55 47.31-19.942 85.63-3.767 85.605 36.287-.024 40.054-38.462 86.72-85.866 104.091zM1121-161.58c-47.347 18.017-85.756-.885-85.775-42.08-.02-41.193 38.274-91.224 85.517-111.906 47.228-20.858 85.602-2.332 85.727 41.538s-38.136 94.278-85.47 112.448zm245.947-96.147c-47.277 18.815-85.752-2.575-85.925-47.638-.172-45.062 37.931-98.972 85.093-120.57 47.146-21.776 85.587-.761 85.876 47.096.288 47.858-37.782 102.144-85.044 121.112zm245.578-100.296c-47.205 19.613-85.76-4.405-86.1-53.506-.342-49.101 37.559-107.028 84.64-129.544 47.064-22.692 85.585.95 86.052 52.965.467 52.015-37.4 110.318-84.592 130.085zm245.21-104.447c-47.134 20.412-85.78-6.371-86.305-59.681-.524-53.31 37.162-115.394 84.16-138.826 46.984-23.609 85.596 2.798 86.257 59.14.662 56.344-36.99 118.802-84.112 139.367zM131.183 343.858c-47.728 11.38-86.068-1.712-85.625-29.137.442-27.425 39.451-60.555 87.117-74.126 47.654-13.71 85.968-.912 85.588 28.714-.38 29.626-39.362 63.05-87.08 74.549zm247.98-61.065c-47.675 11.992-86.046-3.188-85.696-33.8.35-30.611 39.23-66.917 86.832-81.218 47.588-14.441 85.934.445 85.658 33.377-.277 32.932-39.132 69.531-86.795 81.64zm247.623-51.506c-47.628 12.361-86.05-5.24-85.808-39.209.242-33.968 38.99-73.392 86.534-88.18 47.533-14.927 85.929 2.385 85.771 38.792-.158 36.408-38.88 76.12-86.497 88.597zm247.46-66.125c-47.574 12.96-86.052-7.014-85.933-44.51.118-37.497 38.715-80.363 86.195-95.87 47.47-15.645 85.922 4.041 85.897 44.095-.024 40.054-38.594 83.209-86.158 96.285zm247.184-69.244c-47.521 13.56-86.068-8.926-86.087-50.12-.02-41.194 38.413-87.64 85.83-103.866 47.405-16.363 85.926 5.834 86.05 49.705.125 43.87-38.282 90.605-85.793 104.281zm246.907-72.362c-47.468 14.16-86.096-10.976-86.268-56.038-.173-45.063 38.083-95.227 85.437-112.17 47.34-17.083 85.943 7.764 86.232 55.622.288 47.858-37.943 98.31-85.4 112.586zm246.63-75.48c-47.414 14.76-86.136-13.163-86.477-62.265-.34-49.101 37.727-103.122 85.017-120.784 47.277-17.8 85.973 9.835 86.44 61.85.468 52.015-37.575 106.324-84.98 121.2zm246.354-78.597c-47.361 15.36-86.188-15.49-86.713-68.801-.525-53.31 37.343-111.326 84.569-129.707 47.213-18.518 86.015 12.043 86.676 68.386.662 56.343-37.18 114.647-84.532 130.122zM128.69 516.536c-47.832 7.718-86.254-8.316-85.811-35.74.442-27.425 39.533-57.615 87.303-67.523 47.76-10.01 86.164 5.816 85.784 35.443-.38 29.626-39.451 60.022-87.276 67.82zm248.573-41.408c-47.796 8.131-86.263-10.151-85.913-40.763.35-30.611 39.326-63.815 87.05-74.255 47.713-10.542 86.161 7.533 85.885 40.465-.276 32.932-39.234 66.342-87.022 74.553zm248.309-30.817c-47.767 8.302-86.299-12.562-86.057-46.53.242-33.97 39.1-70.13 86.783-80.86 47.675-10.829 86.189 9.834 86.031 46.241-.157 36.408-38.997 72.77-86.757 81.15zm248.237-44.404c-47.73 8.703-86.333-14.696-86.214-52.192.118-37.496 38.839-76.938 86.476-88.187 47.63-11.35 86.214 11.847 86.19 51.901-.025 40.054-38.727 79.698-86.452 88.478zm248.053-46.49c-47.696 9.103-86.381-16.968-86.4-58.162-.02-41.194 38.551-84.056 86.143-95.824 47.582-11.87 86.25 14 86.374 57.87.125 43.87-38.428 86.934-86.117 96.115zm247.867-48.578c-47.66 9.506-86.44-19.376-86.613-64.438-.173-45.063 38.236-91.482 85.782-103.77 47.536-12.39 86.3 16.29 86.588 64.148.288 47.857-38.104 94.478-85.757 104.06zm247.683-50.663c-47.625 9.907-86.513-21.923-86.855-71.025-.34-49.1 37.895-99.215 85.394-112.024 47.49-12.91 86.36 18.72 86.828 70.734.468 52.015-37.75 102.332-85.367 112.315zm247.497-52.749c-47.59 10.308-86.598-24.61-87.122-77.92-.525-53.31 37.524-107.258 84.977-120.587 47.444-13.429 86.435 21.287 87.096 77.63.662 56.342-37.37 110.493-84.951 120.877zM126.195 689.214c-47.936 4.055-86.44-14.92-85.997-42.344.443-27.425 39.615-54.673 87.488-60.919 47.868-6.31 86.36 12.545 85.981 42.171-.38 29.627-39.54 56.995-87.472 61.092zm249.166-21.75c-47.917 4.27-86.48-17.115-86.13-47.726.35-30.612 39.423-60.713 87.267-67.293 47.838-6.643 86.39 14.621 86.114 47.553-.276 32.932-39.338 63.154-87.251 67.465zm248.995-10.128c-47.906 4.242-86.548-19.885-86.306-53.854.242-33.968 39.21-66.867 87.032-73.536 47.817-6.732 86.45 17.28 86.291 53.688-.157 36.407-39.115 69.42-87.017 73.702zm249.014-22.684c-47.887 4.445-86.614-22.377-86.495-59.873.118-37.496 38.963-73.515 86.757-80.506 47.789-7.053 86.506 19.654 86.482 59.708-.024 40.054-38.86 76.187-86.744 80.671zm248.922-23.738c-47.87 4.648-86.694-25.008-86.714-66.202-.02-41.194 38.69-80.47 86.456-87.783 47.76-7.375 86.574 22.166 86.699 66.036.125 43.871-38.575 83.263-86.441 87.95zm248.827-24.792c-47.851 4.85-86.785-27.776-86.958-72.839-.173-45.062 38.39-87.736 86.127-95.37 47.731-7.695 86.655 24.817 86.943 72.674.289 47.858-38.263 90.646-86.112 95.535zm248.734-25.846c-47.833 5.053-86.89-30.683-87.23-79.785-.342-49.1 38.061-95.309 85.77-103.264 47.703-8.018 86.748 27.604 87.216 79.62.467 52.014-37.925 98.337-85.756 103.43zm248.64-26.9c-47.815 5.256-87.005-33.729-87.53-87.04-.525-53.31 37.706-103.19 85.386-111.467 47.675-8.34 86.855 30.53 87.516 86.873.662 56.343-37.559 106.34-85.371 111.634zM123.7 861.892c-48.04.393-86.624-21.523-86.182-48.948.443-27.424 39.697-51.732 87.674-54.315 47.975-2.609 86.557 19.274 86.177 48.9-.38 29.626-39.63 53.967-87.669 54.363zm249.76-2.094c-48.037.41-86.696-24.077-86.347-54.688.35-30.611 39.519-57.611 87.484-60.33 47.963-2.743 86.619 21.71 86.343 54.641-.276 32.932-39.442 59.965-87.48 60.377zm249.68 10.562c-48.044.182-86.796-27.207-86.554-61.176.242-33.968 39.32-63.604 87.281-66.214 47.96-2.634 86.71 24.728 86.552 61.135-.158 36.408-39.234 66.072-87.278 66.255zm249.792-.963c-48.044.187-86.895-30.059-86.777-67.555.12-37.496 39.089-70.09 87.04-72.824 47.948-2.757 86.797 27.461 86.773 67.515-.024 40.054-38.991 72.677-87.036 72.864zm249.79-.984c-48.044.19-87.007-33.05-87.026-74.243-.02-41.195 38.829-76.887 86.769-79.743 47.937-2.88 86.898 30.332 87.023 74.203.124 43.87-38.722 79.59-86.766 79.783zm249.788-1.007c-48.043.195-87.13-36.178-87.303-81.24-.173-45.063 38.543-83.99 86.471-86.97 47.927-3.002 87.012 33.342 87.3 81.2.289 47.857-38.424 86.813-86.468 87.01zm249.786-1.03c-48.043.2-87.266-39.443-87.608-88.545-.34-49.1 38.23-91.403 86.147-94.505 47.916-3.125 87.137 36.49 87.604 88.505.468 52.015-38.1 94.345-86.143 94.545zm249.784-1.052c-48.043.204-87.415-42.847-87.94-96.158-.524-53.31 37.888-99.124 85.795-102.349 47.905-3.249 87.275 39.775 87.936 96.118.662 56.343-37.748 102.185-85.79 102.39zM103.771 1033.382c-48.142-3.257-86.802-27.929-86.354-55.138.448-27.209 39.788-48.404 87.869-47.329 48.081 1.087 86.747 25.813 86.36 55.215-.385 29.403-39.73 50.544-87.875 47.252zm256.577 17.945c-48.158-3.444-86.909-30.907-86.555-61.372.354-30.465 39.622-54.246 87.709-53.106 48.087 1.152 86.843 28.669 86.562 61.449-.281 32.78-39.554 56.508-87.716 53.029zm256.666 18.94c-48.176-3.63-87.029-34.029-86.785-67.929.244-33.9 39.428-60.413 87.52-59.208 48.093 1.217 86.951 31.67 86.791 68.007-.16 36.337-39.348 62.796-87.526 59.13zm256.753 19.937c-48.191-3.817-87.16-37.297-87.042-74.812.118-37.514 39.204-66.904 87.302-65.633 48.099 1.282 87.072 34.816 87.05 74.889-.024 40.072-39.115 69.408-87.31 65.556zm256.842 20.932c-48.208-4.004-87.305-40.71-87.33-82.018-.023-41.307 38.953-73.719 87.056-72.383 48.105 1.348 87.207 38.108 87.337 82.095.129 43.987-38.851 76.345-87.063 72.306zm256.93 21.928c-48.224-4.191-87.463-44.27-87.644-89.548-.182-45.28 38.67-80.859 86.78-79.458 48.11 1.414 87.354 41.545 87.652 89.626.298 48.08-38.56 83.606-86.787 79.38zm257.02 22.923c-48.242-4.378-87.635-47.972-87.99-97.402-.355-49.43 38.361-88.322 86.476-86.855 48.117 1.478 87.515 45.126 87.997 97.48.482 52.353-38.239 91.19-86.483 86.777zm257.107 23.92c-48.258-4.566-87.818-51.821-88.363-105.581-.545-53.76 38.023-96.11 86.144-94.578 48.122 1.544 87.687 48.854 88.37 105.658.682 56.805-37.89 99.1-86.151 94.5zM101.39 1194.481c-48.238-6.687-86.975-34.113-86.526-61.322.448-27.21 39.864-45.65 88.04-41.144 48.182 4.553 86.93 32.115 86.544 61.517-.386 29.403-39.813 47.708-88.058 40.95zm257.144 36.83c-48.271-7.065-87.112-37.438-86.757-67.903.354-30.465 39.711-51.337 87.911-46.575 48.204 4.81 87.056 35.318 86.775 68.098-.28 32.78-39.65 53.516-87.929 46.38zm257.323 38.844c-48.305-7.443-87.262-40.907-87.018-74.807.245-33.9 39.531-57.349 87.754-52.33 48.226 5.066 87.195 38.665 87.035 75.002-.16 36.337-39.459 59.65-87.77 52.135zm257.502 40.86c-48.339-7.822-87.425-44.522-87.307-82.036.118-37.514 39.322-63.685 87.567-58.41 48.25 5.323 87.347 42.158 87.324 82.23-.023 40.073-39.239 66.108-87.584 58.215zm257.68 42.873c-48.372-8.2-87.6-48.28-87.624-89.588-.023-41.307 39.083-70.344 87.351-64.813 48.272 5.58 87.513 45.796 87.642 89.783.13 43.987-38.99 72.889-87.368 64.618zm257.86 44.889c-48.406-8.578-87.789-52.186-87.97-97.465-.182-45.279 38.815-77.328 87.106-71.54 48.295 5.835 87.69 49.578 87.988 97.659.298 48.08-38.711 79.994-87.124 71.346zm258.039 46.903c-48.44-8.956-87.991-56.235-88.346-105.665-.356-49.43 38.519-84.637 86.833-78.593 48.317 6.093 87.88 53.507 88.363 105.86.482 52.354-38.404 87.425-86.85 78.398zm258.217 48.918c-48.473-9.334-88.205-60.43-88.75-114.19-.545-53.76 38.194-92.268 86.53-85.968 48.341 6.349 88.086 57.58 88.768 114.385.683 56.805-38.069 95.178-86.548 85.773zM99.009 1355.583c-48.334-10.118-87.147-40.299-86.698-67.508.448-27.209 39.94-42.895 88.213-34.959 48.28 8.02 87.112 38.418 86.726 67.82-.386 29.403-39.897 44.872-88.24 34.647zm257.712 55.714c-48.385-10.687-87.315-43.97-86.961-74.434.354-30.465 39.801-48.428 88.114-40.044 48.32 8.467 87.27 41.967 86.989 74.747-.281 32.78-39.748 50.525-88.142 39.731zm257.98 58.748c-48.435-11.257-87.495-47.785-87.251-81.685.244-33.9 39.634-54.284 87.987-45.453 48.36 8.915 87.44 45.661 87.279 81.998-.16 36.337-39.57 56.503-88.015 45.14zm258.25 61.782c-48.486-11.826-87.69-51.746-87.571-89.26.118-37.514 39.438-60.465 87.83-51.186 48.4 9.363 87.623 49.5 87.6 89.573-.024 40.072-39.363 62.805-87.859 50.873zm258.52 64.815c-48.537-12.395-87.896-55.85-87.92-97.158-.024-41.307 39.213-66.97 87.646-57.243 48.44 9.81 87.818 53.484 87.947 97.471.13 43.987-39.127 69.432-87.674 56.93zm258.788 67.85c-48.587-12.965-88.115-60.102-88.297-105.381-.181-45.28 38.96-73.8 87.432-63.625 48.48 10.259 88.027 57.614 88.325 105.694.298 48.08-38.863 76.383-87.46 63.312zm259.058 70.883c-48.638-13.534-88.348-64.498-88.703-113.928-.355-49.43 38.678-80.952 87.19-70.33 48.519 10.706 88.248 61.888 88.73 114.241.483 52.353-38.57 83.658-87.217 70.017zm259.327 73.917c-48.688-14.103-88.593-69.039-89.138-122.799-.544-53.76 38.367-88.429 86.919-77.359 48.559 11.154 88.482 66.307 89.165 123.112.683 56.805-38.248 91.256-86.946 77.046zM96.628 1516.684c-48.43-13.549-87.319-46.484-86.87-73.693.448-27.21 40.015-40.14 88.385-28.774 48.38 11.486 87.295 44.72 86.909 74.123-.386 29.403-39.98 42.035-88.424 28.344zm258.279 74.598c-48.498-14.309-87.518-50.5-87.164-80.965.355-30.466 39.891-45.518 88.318-33.513 48.437 12.125 87.482 48.616 87.201 81.396-.28 32.78-39.844 47.534-88.355 33.082zm258.638 78.652c-48.566-15.07-87.729-54.663-87.485-88.563.244-33.9 39.737-51.22 88.22-38.575 48.494 12.764 87.684 52.656 87.524 88.993-.16 36.337-39.68 53.357-88.259 38.145zm258.998 82.704c-48.633-15.83-87.953-58.97-87.835-96.483.118-37.514 39.555-57.246 88.095-43.962 48.55 13.403 87.897 56.841 87.874 96.914-.024 40.072-39.488 59.504-88.134 43.531zm259.358 86.757c-48.7-16.59-88.19-63.42-88.215-104.728-.023-41.307 39.345-63.595 87.941-49.673 48.607 14.042 88.124 61.172 88.253 105.159.13 43.987-39.265 65.976-87.979 49.242zm259.718 90.81c-48.769-17.35-88.441-68.018-88.623-113.297-.182-45.279 39.105-70.269 87.758-55.708 48.664 14.681 88.363 65.648 88.66 113.728.299 48.081-39.014 72.772-87.795 55.278zm260.077 94.864c-48.836-18.112-88.704-72.76-89.06-122.19-.355-49.431 38.837-77.268 87.547-62.068 48.72 15.32 88.615 70.268 89.097 122.621.483 52.354-38.735 79.891-87.584 61.637zm260.437 98.916c-48.903-18.873-88.98-77.648-89.525-131.408-.545-53.76 38.54-84.59 87.306-68.75 48.777 15.959 88.88 75.034 89.563 131.838.683 56.805-38.428 87.335-87.344 68.32zm-1817.885-446.2c-48.528-16.98-87.492-52.67-87.043-79.879.448-27.209 40.09-37.385 88.557-22.589 48.48 14.953 87.478 51.024 87.091 80.427-.386 29.402-40.062 39.197-88.605 22.04zm258.845 93.482c-48.612-17.93-87.72-57.032-87.366-87.497.354-30.465 39.98-42.608 88.52-26.98 48.553 15.782 87.696 55.264 87.415 88.044-.281 32.78-39.941 44.542-88.569 26.433zm259.296 98.555c-48.696-18.882-87.963-61.54-87.719-95.44.244-33.9 39.841-48.155 88.454-31.697 48.628 16.613 87.928 59.651 87.768 95.988-.16 36.337-39.79 50.21-88.503 31.15zm259.746 103.627c-48.78-19.834-88.218-66.193-88.1-103.707.118-37.514 39.673-54.025 88.36-36.738 48.7 17.443 88.172 64.183 88.148 104.256-.023 40.072-39.611 56.202-88.408 36.19zm260.197 108.7c-48.866-20.787-88.486-70.992-88.51-112.3-.024-41.306 39.475-60.22 88.236-42.102 48.774 18.274 88.429 68.86 88.558 112.847.13 43.987-39.403 62.52-88.284 41.554zm260.646 113.77c-48.95-21.737-88.767-75.934-88.948-121.213-.182-45.28 39.249-66.74 88.083-47.792 48.849 19.104 88.7 73.682 88.998 121.763.298 48.08-39.167 69.16-88.133 47.243zm261.097 118.844c-49.034-22.69-89.06-81.024-89.416-130.454-.355-49.43 38.995-73.582 87.903-53.804 48.922 19.934 88.982 78.649 89.464 131.002.483 52.353-38.9 76.124-87.95 53.256zm261.547 123.915c-49.119-23.642-89.367-86.257-89.912-140.017-.545-53.76 38.711-80.75 87.693-60.141 48.996 20.764 89.278 83.76 89.96 140.565.683 56.805-38.606 83.413-87.74 59.593z" fill="#14A4B5" mask="url(#j)"/></g><g transform="rotate(13 2149.504 12818.336)"><mask id="l" fill="#fff"><use xlink:href="#k"/></mask><path d="M89.196 182.012c-31.777 15.995-57.305 5.201-57.01-23.959.295-29.16 26.27-67.514 58.005-85.838 31.725-18.514 57.23-8.125 56.977 23.377-.253 31.5-26.205 70.26-57.972 86.42zm165.065-85.83c-31.729 16.856-57.268 4.014-57.034-28.535.233-32.549 26.112-74.45 57.793-93.761 31.67-19.501 57.186-7.064 57.002 27.952-.184 35.016-26.04 77.322-57.76 94.344zM419.03 19.419c-31.686 17.46-57.25 2.213-57.088-33.905.161-36.118 25.942-81.506 57.573-101.547 31.62-20.228 57.161-5.382 57.056 33.33-.105 38.711-25.863 84.499-57.54 102.122zm164.598-93.406c-31.64 18.308-57.23.71-57.151-39.159.079-39.869 25.749-89.088 57.326-110.104 31.566-21.203 57.135-4.004 57.119 38.584-.016 42.589-25.664 92.208-57.294 110.679zm164.352-97.818c-31.592 19.157-57.22-.941-57.233-44.742-.013-43.8 25.539-96.998 57.061-118.988 31.512-22.178 57.118-2.48 57.2 44.167.084 46.646-25.445 100.243-57.028 119.563zm164.106-102.231c-31.544 20.006-57.217-2.739-57.332-50.653-.115-47.914 25.309-105.235 56.777-128.2 31.458-23.154 57.108-.809 57.3 50.077.193 50.886-25.209 108.607-56.745 128.776zm163.86-106.643c-31.497 20.854-57.222-4.683-57.45-56.892-.227-52.208 25.062-113.801 56.476-137.742 31.404-24.128 57.106 1.01 57.418 56.317.312 55.306-24.955 117.3-56.443 138.317zm163.615-111.056c-31.45 21.703-57.236-6.775-57.586-63.459-.35-56.684 24.796-122.695 56.155-147.61 31.35-25.103 57.113 2.975 57.555 62.883.441 59.908-24.682 126.32-56.124 148.186zM87.531 365.618c-31.846 12.1-57.428-1.821-57.133-30.981.295-29.16 26.324-64.387 58.128-78.817 31.797-14.578 57.362-.97 57.109 30.531-.254 31.501-26.265 67.04-58.104 79.267zm165.462-64.93c-31.81 12.751-57.413-3.39-57.18-35.938.234-32.549 26.177-71.152 57.939-86.358 31.753-15.355 57.338.473 57.154 35.489-.184 35.016-26.11 73.931-57.913 86.807zm165.225-54.765c-31.779 13.143-57.415-5.572-57.254-41.69.161-36.118 26.015-78.037 57.74-93.761 31.715-15.871 57.334 2.537 57.229 41.248-.105 38.712-25.942 80.938-57.715 94.203zm165.117-70.31c-31.744 13.781-57.418-7.458-57.34-47.327.08-39.868 25.833-85.447 57.514-101.935 31.674-16.636 57.33 4.296 57.315 46.885-.016 42.588-25.752 88.474-57.49 102.377zm164.931-73.625c-31.708 14.418-57.428-9.49-57.441-53.292-.013-43.8 25.63-93.186 57.27-110.438 31.63-17.4 57.333 6.203 57.416 52.85.083 46.646-25.543 96.339-57.245 110.88zm164.747-76.941c-31.672 15.056-57.447-11.67-57.562-59.585-.115-47.914 25.411-101.253 57.007-119.269 31.588-18.162 57.346 8.257 57.538 59.143.193 50.886-25.317 104.532-56.983 119.711zm164.563-80.256c-31.638 15.694-57.474-13.997-57.702-66.206-.227-52.208 25.173-109.648 56.727-128.428 31.545-18.926 57.365 10.458 57.677 65.764.312 55.307-25.072 113.053-56.702 128.87zm164.377-83.572c-31.601 16.332-57.509-16.47-57.859-73.154-.35-56.684 24.917-118.371 56.428-137.915 31.503-19.69 57.393 12.805 57.835 72.713.441 59.908-24.809 121.902-56.404 138.356zM85.867 549.223c-31.916 8.206-57.552-8.842-57.257-38.002.295-29.16 26.378-61.26 58.252-71.795 31.868-10.644 57.492 6.184 57.24 37.685-.254 31.501-26.324 63.821-58.235 72.112zm165.858-44.028c-31.89 8.645-57.558-10.794-57.325-43.342.234-32.549 26.24-67.854 58.083-78.954 31.837-11.21 57.492 8.01 57.307 43.025-.184 35.016-26.179 70.54-58.065 79.27zm165.683-32.767c-31.872 8.827-57.582-13.357-57.421-49.476.161-36.118 26.089-74.567 57.905-85.975 31.811-11.515 57.51 10.455 57.404 49.166-.105 38.712-26.02 77.376-57.888 86.285zm165.634-47.215c-31.848 9.254-57.605-15.625-57.526-55.494.08-39.869 25.915-81.807 57.701-93.768 31.78-12.067 57.525 12.597 57.51 55.186-.017 42.588-25.84 84.741-57.685 94.076zm165.512-49.432c-31.825 9.68-57.638-18.04-57.65-61.842-.013-43.8 25.723-89.375 57.478-101.888 31.749-12.62 57.55 14.886 57.633 61.532.083 46.647-25.641 92.436-57.461 102.198zM913.94 324.13c-31.8 10.107-57.677-20.602-57.792-68.517-.115-47.914 25.513-97.27 57.237-110.337 31.719-13.172 57.583 17.322 57.776 68.208.192 50.886-25.424 100.457-57.22 110.646zm165.265-53.869c-31.777 10.533-57.726-23.311-57.953-75.52-.228-52.208 25.284-105.494 56.978-119.113 31.687-13.726 57.624 19.904 57.936 75.21.311 55.307-25.189 108.808-56.961 119.423zm165.14-56.087c-31.753 10.96-57.781-26.167-58.131-82.85-.35-56.685 25.038-114.047 56.7-128.22 31.657-14.278 57.673 22.634 58.115 82.543.441 59.908-24.935 117.485-56.684 128.527zM84.202 732.828c-31.984 4.312-57.675-15.863-57.38-45.023.295-29.16 26.432-58.133 58.376-64.774 31.94-6.71 57.623 13.339 57.37 44.84-.253 31.501-26.383 60.601-58.366 64.957zm166.255-23.127c-31.972 4.54-57.703-18.197-57.47-50.745.234-32.549 26.305-64.556 58.228-71.551 31.92-7.064 57.644 15.546 57.46 50.562-.185 35.016-26.249 67.15-58.218 71.734zm166.14-10.768c-31.965 4.51-57.748-21.143-57.587-57.262.161-36.118 26.162-71.098 58.072-78.19 31.905-7.157 57.682 18.374 57.577 57.086-.105 38.711-26.1 73.814-58.062 78.366zm166.153-24.12c-31.953 4.727-57.793-23.793-57.714-63.662.08-39.868 25.999-78.166 57.889-85.6 31.887-7.5 57.72 20.898 57.704 63.487-.016 42.588-25.928 81.008-57.879 85.776zm166.091-25.24c-31.94 4.943-57.846-26.59-57.859-70.39-.013-43.801 25.816-85.564 57.687-93.34 31.868-7.84 57.766 23.57 57.85 70.216.083 46.647-25.74 88.532-57.678 93.515zm166.029-26.36c-31.93 5.157-57.908-29.534-58.023-77.448-.115-47.915 25.615-93.289 57.468-101.406 31.848-8.182 57.82 26.387 58.012 77.273.193 50.886-25.531 96.382-57.457 101.581zm165.966-27.482c-31.917 5.373-57.977-32.625-58.205-84.833-.227-52.209 25.397-101.341 57.23-109.8 31.83-8.525 57.882 29.351 58.194 84.658.312 55.307-25.305 104.561-57.22 109.975zm165.903-28.602c-31.905 5.588-58.054-35.863-58.404-92.547-.35-56.684 25.159-109.722 56.973-118.523 31.81-8.866 57.953 32.463 58.395 92.372.441 59.908-25.062 113.068-56.964 118.698zM82.538 916.433c-32.054.418-57.8-22.884-57.504-52.044.295-29.16 26.487-55.006 58.5-57.753 32.01-2.774 57.754 20.493 57.5 51.995-.253 31.5-26.442 57.381-58.496 57.802zm166.65-2.225c-32.052.435-57.847-25.601-57.614-58.15.234-32.548 26.369-61.257 58.373-64.147 32.003-2.917 57.796 23.083 57.612 58.099-.184 35.016-26.318 63.76-58.37 64.198zm166.598 11.23c-32.057.194-57.914-28.93-57.753-65.047.161-36.119 26.236-67.63 58.238-70.405 32-2.8 57.856 26.293 57.75 65.004-.105 38.712-26.177 70.252-58.235 70.447zm166.672-1.024c-32.057.199-57.98-31.961-57.901-71.83.079-39.869 26.08-74.527 58.076-77.433 31.993-2.93 57.915 29.2 57.899 71.788-.016 42.588-26.017 77.275-58.074 77.475zm166.67-1.047c-32.057.203-58.054-35.14-58.067-78.941-.013-43.801 25.908-81.752 57.896-84.79 31.986-3.061 57.982 32.253 58.065 78.9.083 46.646-25.837 84.627-57.894 84.83zm166.67-1.07c-32.057.207-58.138-38.467-58.253-86.381-.115-47.915 25.717-89.306 57.698-92.474 31.978-3.192 58.057 35.452 58.25 86.338.192 50.886-25.639 92.307-57.695 92.516zm166.667-1.095c-32.056.212-58.227-41.94-58.455-94.148-.228-52.209 25.508-97.187 57.48-100.486 31.972-3.323 58.142 38.799 58.454 94.105.312 55.307-25.422 100.315-57.479 100.529zm166.667-1.119c-32.056.217-58.327-45.559-58.677-102.243-.35-56.684 25.28-105.397 57.246-108.826 31.964-3.454 58.233 42.292 58.675 102.2.44 59.91-25.188 108.652-57.244 108.87zM69.241 1098.776c-32.123-3.463-57.919-29.696-57.62-58.627.3-28.931 26.549-51.467 58.63-50.325 32.082 1.156 57.882 27.447 57.624 58.71-.258 31.263-26.51 53.742-58.634 50.242zm171.199 19.08c-32.134-3.661-57.99-32.862-57.753-65.255.236-32.393 26.437-57.68 58.522-56.467 32.086 1.225 57.946 30.483 57.758 65.337-.187 34.855-26.392 60.084-58.527 56.385zm171.258 20.14c-32.145-3.86-58.07-36.183-57.906-72.229.162-36.045 26.307-64.236 58.396-62.955 32.09 1.295 58.018 33.675 57.911 72.31-.107 38.637-26.255 66.771-58.401 62.873zm171.317 21.197c-32.156-4.058-58.157-39.657-58.079-79.545.08-39.888 26.159-71.138 58.252-69.788 32.094 1.364 58.099 37.02 58.083 79.629-.015 42.608-26.099 73.8-58.256 69.704zm171.376 22.257c-32.167-4.257-58.254-43.287-58.27-87.208-.016-43.92 25.99-78.384 58.087-76.964 32.098 1.433 58.188 40.52 58.275 87.29.086 46.771-25.923 81.177-58.092 76.882zm171.435 23.315c-32.178-4.456-58.36-47.07-58.48-95.214-.122-48.145 25.802-85.975 57.903-84.486 32.101 1.503 58.286 44.174 58.485 95.297.199 51.124-25.728 88.897-57.908 84.403zm171.494 24.375c-32.189-4.655-58.473-51.008-58.71-103.566-.238-52.559 25.596-93.911 57.7-92.352 32.106 1.572 58.393 47.982 58.715 103.648.322 55.667-25.514 96.962-57.705 92.27zm171.553 25.432c-32.2-4.853-58.596-55.1-58.96-112.262-.363-57.162 25.37-102.19 57.48-100.562 32.108 1.641 58.508 51.945 58.963 112.344.456 60.4-25.281 105.371-57.483 100.48zM67.652 1270.071c-32.187-7.11-58.033-36.273-57.734-65.203.299-28.931 26.599-48.539 58.744-43.748 32.149 4.841 58.004 34.148 57.746 65.41-.258 31.264-26.565 50.727-58.756 43.54zm171.578 39.16c-32.21-7.513-58.125-39.807-57.889-72.2.236-32.393 26.497-54.586 58.658-49.523 32.164 5.115 58.088 37.553 57.9 72.408-.187 34.854-26.456 56.903-58.67 49.315zm171.696 41.302c-32.231-7.914-58.225-43.495-58.062-79.54.163-36.046 26.377-60.979 58.553-55.643 32.179 5.387 58.18 41.113 58.074 79.749-.107 38.636-26.329 63.424-58.565 55.434zm171.817 43.445c-32.254-8.316-58.334-47.339-58.255-87.227.079-39.888 26.237-67.714 58.428-62.106 32.194 5.66 58.282 44.826 58.266 87.434-.015 42.609-26.181 70.291-58.44 61.899zm171.935 45.587c-32.276-8.719-58.45-51.336-58.467-95.257-.015-43.921 26.078-74.796 58.284-68.915 32.21 5.932 58.393 48.694 58.479 95.465.086 46.77-26.015 77.501-58.296 68.707zm172.055 47.73c-32.298-9.121-58.577-55.489-58.698-103.633-.121-48.144 25.9-82.222 58.121-76.068 32.225 6.205 58.51 52.716 58.71 103.84.198 51.123-25.83 85.056-58.133 75.86zm172.174 49.87c-32.32-9.522-58.711-59.793-58.948-112.351-.237-52.558 25.702-89.993 57.939-83.566 32.24 6.478 58.638 56.893 58.96 112.56.321 55.665-25.625 92.956-57.95 83.358zm172.294 52.014c-32.343-9.924-58.854-64.254-59.218-121.416-.363-57.162 25.485-98.107 57.737-91.408 32.255 6.75 58.774 61.224 59.23 121.623.455 60.4-25.402 101.201-57.75 91.201zM66.063 1441.366c-32.25-10.758-58.148-42.849-57.849-71.78.3-28.93 26.65-45.609 58.86-37.171 32.215 8.527 58.125 40.85 57.867 72.112-.257 31.263-26.62 47.71-58.878 36.839zm171.956 59.24c-32.284-11.364-58.26-46.752-58.024-79.145.237-32.393 26.558-51.492 58.794-42.578 32.242 9.004 58.23 44.623 58.042 79.477-.187 34.855-26.52 53.723-58.812 42.246zm172.136 62.465c-32.318-11.968-58.38-50.808-58.218-86.854.163-36.045 26.446-57.719 58.709-48.329 32.268 9.48 58.343 48.55 58.236 87.187-.107 38.636-26.402 60.079-58.727 47.996zm172.315 65.692c-32.352-12.574-58.51-55.02-58.43-94.908.078-39.888 26.314-64.291 58.604-54.425 32.294 9.955 58.465 52.632 58.45 95.24-.016 42.608-26.265 66.78-58.624 54.093zm172.496 68.917c-32.386-13.18-58.648-59.386-58.664-103.307-.016-43.92 26.165-71.207 58.48-60.865 32.322 10.431 58.597 56.868 58.683 103.639.086 46.77-26.107 73.826-58.5 60.533zm172.674 72.143c-32.42-13.785-58.794-63.905-58.915-112.05-.121-48.144 25.996-78.469 58.338-67.65 32.348 10.907 58.736 61.259 58.934 112.382.199 51.123-25.93 81.216-58.357 67.318zm172.855 75.369c-32.453-14.39-58.95-68.58-59.186-121.138-.238-52.558 25.807-86.074 58.176-74.78 32.374 11.384 58.883 65.804 59.205 121.47.322 55.666-25.736 88.952-58.195 74.448zm173.034 78.594c-32.487-14.995-59.113-73.407-59.476-130.57-.364-57.161 25.6-94.024 57.995-82.254 32.4 11.86 59.04 70.503 59.495 130.903.456 60.4-25.52 97.03-58.014 81.921zM64.475 1612.661c-32.316-14.405-58.263-49.425-57.964-78.356.299-28.93 26.7-42.68 58.974-30.595 32.281 12.213 58.247 47.551 57.99 78.814-.258 31.263-26.677 44.695-59 30.137zm172.334 79.32c-32.36-15.215-58.395-53.697-58.16-86.09.237-32.393 26.618-48.398 58.93-35.633 32.32 12.893 58.372 51.693 58.185 86.547-.188 34.855-26.586 50.542-58.955 35.176zm172.575 83.628c-32.406-16.023-58.537-58.121-58.374-94.167.163-36.045 26.514-54.46 58.864-41.016 32.357 13.572 58.507 55.988 58.4 94.625-.107 38.636-26.477 56.733-58.89 40.558zm172.814 87.938c-32.45-16.832-58.686-62.7-58.607-102.589.078-39.888 26.393-60.867 58.78-46.744 32.395 14.252 58.65 60.439 58.634 103.047-.016 42.608-26.348 63.27-58.807 46.286zm173.055 92.248c-32.496-17.64-58.845-67.435-58.86-111.356-.017-43.921 26.251-67.62 58.677-52.816 32.433 14.93 58.8 65.043 58.886 111.813.087 46.77-26.2 70.151-58.703 52.359zm173.295 96.557c-32.54-18.45-59.012-72.323-59.133-120.468-.121-48.144 26.092-74.715 58.556-59.233 32.47 15.61 58.96 69.802 59.158 120.925.199 51.124-26.033 77.377-58.581 58.776zm173.534 100.866c-32.585-19.258-59.187-77.365-59.424-129.923-.237-52.558 25.913-82.157 58.415-65.995 32.508 16.29 59.127 74.715 59.45 130.381.321 55.666-25.847 84.947-58.44 65.537zm173.775 105.175c-32.63-20.066-59.371-82.561-59.735-139.723-.363-57.162 25.715-89.942 58.254-73.1 32.547 16.968 59.305 79.781 59.76 140.18.456 60.4-25.64 92.862-58.279 72.643zM62.886 1783.957c-32.38-18.054-58.378-56.002-58.079-84.933.3-28.931 26.75-39.752 59.09-24.018 32.347 15.898 58.368 54.252 58.11 85.515-.257 31.263-26.731 41.679-59.121 23.436zm172.713 99.398c-32.436-19.065-58.531-60.64-58.295-93.034.237-32.393 26.677-45.304 59.065-28.688 32.397 16.781 58.514 58.762 58.327 93.617-.188 34.854-26.65 47.36-59.097 28.105zm173.013 104.792c-32.492-20.077-58.692-65.434-58.53-101.48.163-36.045 26.584-51.202 59.02-33.703 32.447 17.664 58.67 63.426 58.563 102.063-.107 38.636-26.55 53.387-59.053 33.12zm173.314 110.185c-32.549-21.09-58.863-70.382-58.784-110.27.079-39.888 26.471-57.444 58.957-39.063 32.495 18.547 58.832 68.245 58.817 110.853-.016 42.608-26.43 59.76-58.99 38.48zM755.54 2213.91c-32.605-22.102-59.042-75.484-59.057-119.405-.016-43.922 26.34-64.032 58.874-44.767 32.545 19.43 59.004 73.217 59.09 119.988.087 46.77-26.291 66.475-58.907 44.184zm173.915 120.97c-32.662-23.113-59.23-80.74-59.35-128.884-.122-48.145 26.188-70.963 58.773-50.816 32.593 20.313 59.184 78.344 59.382 129.468.2 51.123-26.133 73.536-58.805 50.232zm174.215 126.364c-32.718-24.126-59.425-86.15-59.662-138.709-.237-52.558 26.018-78.238 58.652-57.209 32.643 21.196 59.373 83.626 59.695 139.292.321 55.666-25.957 80.942-58.685 56.626zM1278.185 2593c-32.774-25.138-59.63-91.716-59.993-148.878-.364-57.162 25.83-85.86 58.512-63.947 32.692 22.078 59.57 89.061 60.026 149.46.456 60.4-25.76 88.692-58.545 63.365z" fill="#14A4B5" mask="url(#l)"/></g><g transform="rotate(-41 7069.578 -13447.917)"><mask id="n" fill="#fff"><use xlink:href="#m"/></mask><path d="M194.725 249.354c-69.373 21.912-125.103 7.125-124.459-32.824.645-39.95 57.35-92.493 126.632-117.597 69.26-25.363 124.941-11.13 124.388 32.026-.553 43.156-57.208 96.255-126.56 118.395zm360.36-117.586c-69.269 23.092-125.024 5.498-124.514-39.093.509-44.59 57.006-101.995 126.17-128.45 69.139-26.717 124.845-9.678 124.442 38.293-.402 47.97-56.85 105.93-126.098 129.25zM914.794 26.603c-69.176 23.92-124.983 3.033-124.631-46.448.352-49.481 56.634-111.662 125.69-139.118 69.031-27.712 124.79-7.373 124.56 45.661-.23 53.034-56.463 115.762-125.62 139.905zm359.338-127.964c-69.073 25.082-124.942.973-124.769-53.647.173-54.62 56.214-122.049 125.15-150.84 68.914-29.048 124.734-5.486 124.699 52.86-.035 58.345-56.028 126.322-125.08 151.627zm358.801-134.009c-68.97 26.245-124.918-1.289-124.946-61.295-.028-60.007 55.753-132.886 124.57-163.012 68.796-30.384 124.695-3.397 124.877 60.508.182 63.905-55.551 137.33-124.501 163.799zm358.265-140.054c-68.866 27.407-124.912-3.752-125.164-69.393-.251-65.642 55.253-144.171 123.952-175.633 68.676-31.72 124.674-1.108 125.094 68.605.42 69.713-55.036 148.79-123.882 176.42zm357.728-146.1c-68.763 28.57-124.924-6.415-125.421-77.94-.497-71.525 54.712-155.906 123.293-188.704 68.558-33.054 124.67 1.384 125.351 77.153.68 75.769-54.48 160.698-123.223 189.491zm357.191-152.144c-68.66 29.732-124.953-9.281-125.718-86.937-.764-77.656 54.132-168.09 122.594-202.224 68.44-34.39 124.685 4.076 125.649 86.149.963 82.073-53.885 173.055-122.525 203.012zM191.092 500.889c-69.525 16.578-125.374-2.494-124.73-42.443.645-39.949 57.469-88.209 126.903-107.977 69.415-19.972 125.227-1.329 124.674 41.827-.553 43.156-57.338 91.844-126.847 108.593zm361.224-88.952c-69.445 17.47-125.34-4.644-124.83-49.235.509-44.59 57.146-97.476 126.486-118.308 69.321-21.036 125.178.648 124.776 48.619-.403 47.97-57.002 101.285-126.432 118.924zm360.708-75.027c-69.379 18.006-125.346-7.633-124.994-57.114.352-49.481 56.795-106.91 126.052-128.451 69.24-21.744 125.17 3.475 124.94 56.509-.23 53.034-56.635 110.882-125.998 129.056zm360.47-96.323c-69.301 18.88-125.351-10.217-125.178-64.837.173-54.62 56.395-117.062 125.56-139.65 69.146-22.79 125.158 5.886 125.123 64.231-.035 58.346-56.22 121.208-125.505 140.256zM1633.56 139.72c-69.223 19.753-125.373-13.002-125.402-73.008-.028-60.007 55.956-127.664 125.027-151.299 69.054-23.836 125.167 8.498 125.348 72.403.182 63.906-55.764 131.983-124.973 151.904zm359.664-105.407c-69.146 20.627-125.414-15.988-125.666-81.63-.252-65.641 55.476-138.715 124.454-163.396 68.96-24.883 125.192 11.311 125.612 81.024.42 69.713-55.27 143.207-124.4 164.002zm359.26-109.95c-69.068 21.5-125.472-19.175-125.97-90.7-.496-71.525 54.957-150.216 123.842-175.944 68.868-25.929 125.235 14.326 125.916 90.095.681 75.77-54.735 154.881-123.788 176.55zm358.857-114.491c-68.99 22.374-125.549-22.564-126.313-100.22-.764-77.656 54.397-162.166 123.19-188.94 68.774-26.977 125.295 17.541 126.26 99.614.963 82.074-54.16 167.004-123.137 189.546zM187.458 752.425c-69.675 11.243-125.643-12.113-124.999-52.062.645-39.949 57.587-83.925 127.172-98.358 69.572-14.582 125.513 8.472 124.96 51.628-.552 43.156-57.468 87.434-127.133 98.792zm362.09-60.318C479.926 703.952 423.89 677.321 424.4 632.73c.51-44.591 57.286-92.958 126.802-108.166 69.503-15.357 125.51 10.973 125.109 58.944-.403 47.97-57.153 96.64-126.764 108.6zm361.706-44.89c-69.581 12.093-125.71-18.299-125.357-67.78.352-49.481 56.955-102.156 126.415-117.785 69.447-15.775 125.549 14.323 125.32 67.357-.23 53.034-56.808 106.004-126.378 118.209zm361.602-64.682c-69.53 12.677-125.76-21.407-125.588-76.027.173-54.62 56.577-112.074 125.97-128.46 69.379-16.532 125.584 17.258 125.549 75.603-.035 58.345-56.413 116.094-125.931 128.884zm361.332-67.722c-69.477 13.261-125.83-24.716-125.858-84.722-.028-60.006 56.157-122.442 125.482-139.585 69.313-17.29 125.64 20.393 125.82 84.298.182 63.905-55.977 126.635-125.444 140.009zm361.062-70.76c-69.425 13.845-125.917-28.226-126.168-93.867-.252-65.642 55.698-133.26 124.956-151.16 69.245-18.047 125.71 23.73 126.13 93.443.421 69.713-55.503 137.625-124.918 151.583zm360.793-73.8c-69.374 14.43-126.022-31.936-126.519-103.46-.497-71.525 55.2-144.526 124.39-163.184 69.178-18.804 125.8 27.268 126.482 103.037.68 75.769-54.99 149.064-124.353 163.607zm360.522-76.839c-69.32 15.015-126.144-35.848-126.908-113.504-.765-77.656 54.66-156.24 123.784-175.657 69.111-19.56 125.908 31.008 126.872 113.082.963 82.073-54.436 160.952-123.748 176.08zm-2532.74 710.547c-69.827 5.908-125.914-21.733-125.27-61.681.645-39.95 57.706-79.641 127.442-88.74 69.728-9.19 125.8 18.275 125.247 61.43-.553 43.157-57.598 83.023-127.42 88.991zm362.954-31.684c-69.799 6.22-125.973-24.93-125.463-69.52.51-44.591 57.426-88.44 127.119-98.023 69.685-9.677 125.843 21.298 125.44 69.269-.401 47.97-57.302 91.994-127.096 98.274zm362.705-14.752c-69.783 6.18-126.072-28.966-125.72-78.447.352-49.481 57.116-97.404 126.778-107.119 69.654-9.805 125.928 25.172 125.698 78.206-.23 53.034-56.978 101.124-126.756 107.36zm362.733-33.043c-69.756 6.475-126.17-32.596-125.996-87.216.173-54.62 56.758-107.087 126.378-117.27 69.613-10.274 126.01 28.63 125.975 86.975-.035 58.345-56.605 110.98-126.357 117.511zm362.598-34.578c-69.73 6.77-126.285-36.428-126.314-96.435-.028-60.006 56.36-117.22 125.939-127.872 69.57-10.742 126.11 32.289 126.292 96.194.181 63.905-56.191 121.286-125.917 128.113zm362.461-36.114c-69.704 7.066-126.419-40.461-126.67-106.103-.252-65.641 55.921-127.803 125.458-138.923 69.53-11.21 126.23 36.15 126.65 105.862.42 69.713-55.739 132.042-125.438 139.164zm362.325-37.65c-69.678 7.362-126.57-44.695-127.067-116.22-.497-71.524 55.443-138.835 124.939-150.423 69.488-11.679 126.365 40.21 127.046 115.98.68 75.769-55.245 143.246-124.918 150.664zm362.188-39.184c-69.652 7.656-126.74-49.132-127.503-126.788-.765-77.656 54.925-150.316 124.38-162.373 69.446-12.147 126.518 44.474 127.482 126.547.964 82.073-54.712 154.9-124.359 162.614zm-2541.598 478.54c-69.978.573-126.183-31.35-125.539-71.3.645-39.949 57.825-75.356 127.712-79.12 69.884-3.8 126.085 28.076 125.532 71.232-.552 43.156-57.728 78.612-127.705 79.189zm363.82-3.049c-69.976.596-126.29-35.072-125.78-79.663.51-44.59 57.565-83.92 127.435-87.88 69.867-3.997 126.176 31.623 125.774 79.594-.402 47.97-57.454 87.349-127.43 87.95zm363.703 15.385c-69.986.266-126.435-39.632-126.083-89.113.353-49.481 57.277-92.65 127.141-96.453 69.862-3.836 126.307 36.02 126.077 89.055-.23 53.034-57.15 96.244-127.135 96.511zm363.865-1.402c-69.985.272-126.578-43.786-126.405-98.406.172-54.62 56.938-102.1 126.787-106.081 69.845-4.016 126.436 40.002 126.4 98.347-.034 58.346-56.797 105.867-126.782 106.14zm363.863-1.435c-69.984.279-126.74-48.141-126.77-108.148-.027-60.006 56.562-111.998 126.395-116.159 69.83-4.195 126.583 44.185 126.764 108.09.182 63.905-56.404 115.938-126.389 116.217zm363.86-1.467c-69.984.285-126.92-52.698-127.173-118.34-.251-65.64 56.145-122.346 125.962-126.686 69.813-4.374 126.747 48.569 127.167 118.282.42 69.712-55.972 126.459-125.956 126.744zm363.857-1.499c-69.983.29-127.119-57.456-127.616-128.98-.497-71.525 55.687-133.145 125.488-137.664 69.798-4.553 126.93 53.153 127.611 128.922.681 75.77-55.5 137.43-125.483 137.722zm363.854-1.532c-69.982.297-127.334-62.415-128.099-140.071-.764-77.656 55.19-144.392 124.975-149.09 69.782-4.732 127.13 57.94 128.094 140.013.964 82.073-54.987 148.85-124.97 149.148zM151.161 1505.302c-70.127-4.744-126.443-40.683-125.79-80.318.653-39.634 57.958-70.509 127.996-68.943 70.04 1.584 126.363 37.6 125.8 80.43-.562 42.83-57.874 73.626-128.006 68.831zm373.75 26.14c-70.152-5.016-126.599-45.02-126.083-89.398.516-44.378 57.717-79.02 127.763-77.36 70.048 1.68 126.502 41.762 126.092 89.512-.41 47.75-57.617 82.313-127.773 77.246zm373.878 27.59c-70.176-5.288-126.773-49.57-126.417-98.95.355-49.382 57.433-88.003 127.488-86.248 70.056 1.774 126.66 46.134 126.426 99.064-.233 52.931-57.318 91.474-127.497 86.135zm374.006 29.041c-70.2-5.56-126.964-54.33-126.792-108.976.172-54.646 57.107-97.458 127.17-95.607 70.065 1.869 126.837 50.717 126.803 109.09-.034 58.372-56.977 101.105-127.18 95.493zm374.136 30.492c-70.224-5.833-127.176-59.302-127.21-119.473-.035-60.172 56.74-107.386 126.811-105.44 70.073 1.964 127.032 55.511 127.22 119.586.19 64.075-56.593 111.21-126.821 105.327zm374.264 31.941c-70.247-6.105-127.406-64.485-127.67-130.442-.265-65.957 56.33-117.784 126.41-115.744 70.082 2.059 127.247 60.518 127.681 130.556.434 70.037-56.168 121.786-126.42 115.63zm374.393 33.392c-70.272-6.377-127.654-69.88-128.172-141.883-.517-72.004 55.88-128.656 125.968-126.52 70.09 2.153 127.48 65.734 128.183 141.996.702 76.262-55.702 132.836-125.979 126.407zm374.522 34.843c-70.296-6.65-127.922-75.486-128.716-153.797-.793-78.311 55.387-140 125.484-137.769 70.098 2.249 127.731 71.164 128.726 153.91.994 82.746-55.193 144.356-125.494 137.656zm-2622.417 21.232c-70.268-9.74-126.694-49.692-126.041-89.327.653-39.635 58.069-66.496 128.247-59.934 70.184 6.633 126.628 46.782 126.066 89.612-.563 42.83-57.996 69.494-128.272 59.65zm374.575 53.649c-70.316-10.292-126.894-54.535-126.378-98.912.516-44.378 57.848-74.782 128.059-67.846 70.217 7.007 126.813 51.447 126.403 99.197-.41 47.75-57.758 77.956-128.084 67.561zm374.836 56.584c-70.365-10.843-127.112-59.589-126.756-108.97.355-49.382 57.583-83.539 127.828-76.229 70.25 7.38 127.015 56.323 126.782 109.254-.234 52.931-57.48 86.89-127.854 75.945zm375.097 59.518c-70.414-11.394-127.35-64.853-127.178-119.5.172-54.645 57.278-92.767 127.556-85.083 70.284 7.753 127.237 61.41 127.203 119.783-.034 58.373-57.158 96.297-127.58 84.8zm375.357 62.453c-70.463-11.944-127.606-70.33-127.64-130.5-.035-60.171 56.93-102.47 127.241-94.412 70.317 8.127 127.478 66.71 127.666 130.785.188 64.074-56.795 106.175-127.267 94.127zm375.618 65.388c-70.512-12.495-127.88-76.017-128.145-141.974-.265-65.957 56.541-112.642 126.885-104.212 70.35 8.501 127.737 72.22 128.17 142.259.435 70.038-56.39 116.526-126.91 103.927zm375.878 68.323c-70.56-13.046-128.174-81.916-128.692-153.92-.517-72.003 56.11-123.288 126.488-114.483 70.383 8.874 128.014 77.942 128.717 154.204.702 76.262-55.943 127.348-126.513 114.2zm376.139 71.258c-70.61-13.597-128.487-88.026-129.28-166.337-.794-78.311 55.637-134.406 126.047-125.228 70.417 9.248 128.311 83.875 129.306 166.622.994 82.746-55.454 138.643-126.073 124.943zM144.225 1974.645c-70.408-14.739-126.945-58.702-126.292-98.337.653-39.635 58.179-62.484 128.497-50.924 70.33 11.682 126.895 55.963 126.333 98.792-.563 42.83-58.117 65.363-128.538 50.469zm375.401 81.157c-70.481-15.568-127.19-64.049-126.673-108.427.516-44.377 57.977-70.543 128.354-58.33 70.387 12.334 127.123 61.132 126.714 108.882-.41 47.75-57.9 73.598-128.395 57.875zm375.794 85.577c-70.555-16.397-127.452-69.607-127.097-118.989.356-49.381 57.734-79.074 128.169-66.21 70.445 12.987 127.37 66.513 127.137 119.444-.233 52.931-57.64 82.307-128.209 65.755zm376.187 89.996c-70.629-17.227-127.735-75.377-127.563-130.022.172-54.646 57.449-88.078 127.94-74.562 70.504 13.639 127.638 72.105 127.604 130.478-.034 58.372-57.339 91.488-127.981 74.106zm376.578 94.415c-70.702-18.056-128.035-81.357-128.07-141.528-.035-60.171 57.121-97.553 127.672-83.385 70.56 14.291 127.922 77.91 128.11 141.984.189 64.075-56.995 101.14-127.712 82.929zm376.971 98.834c-70.775-18.885-128.355-87.549-128.62-153.506-.264-65.956 56.753-107.5 127.36-92.68 70.62 14.944 128.227 83.924 128.661 153.962.434 70.038-56.61 111.265-127.4 92.224zm377.364 103.254c-70.85-19.714-128.694-93.952-129.212-165.956-.517-72.003 56.342-117.92 127.007-102.447 70.677 15.595 128.55 90.15 129.252 166.412.703 76.261-56.184 121.861-127.047 101.991zm377.755 107.674c-70.923-20.544-129.05-100.568-129.844-178.879-.794-78.31 55.888-128.812 126.612-112.687 70.734 16.248 128.89 96.588 129.884 179.334.995 82.746-55.715 132.931-126.652 112.232zM140.756 2209.316c-70.548-19.735-127.195-67.712-126.542-107.347.653-39.634 58.29-58.47 128.748-41.914 70.475 16.732 127.16 65.144 126.598 107.974-.562 42.83-58.237 61.23-128.804 41.287zm376.228 108.666c-70.646-20.843-127.485-73.563-126.969-117.94.516-44.379 58.108-66.305 128.65-48.818 70.557 17.663 127.434 70.818 127.024 118.568-.409 47.75-58.04 69.241-128.705 48.19zm376.752 114.57c-70.744-21.952-127.793-79.626-127.437-129.007.355-49.382 57.884-74.61 128.509-56.192 70.64 18.593 127.726 76.703 127.493 129.634-.234 52.931-57.801 77.724-128.565 55.565zm377.277 120.473c-70.844-23.06-128.12-85.899-127.948-140.545.172-54.646 57.619-83.388 128.325-64.038 70.723 19.524 128.038 82.8 128.004 141.172-.034 58.372-57.52 86.678-128.381 63.411zm377.8 126.377c-70.942-24.167-128.466-92.384-128.5-152.555-.035-60.171 57.311-92.637 128.1-72.357 70.806 20.455 128.368 89.107 128.557 153.182.188 64.075-57.197 96.105-128.157 71.73zm378.324 132.281c-71.04-25.275-128.83-99.08-129.095-165.037-.264-65.957 56.963-102.36 127.835-81.149 70.888 21.386 128.716 95.627 129.15 165.665.434 70.038-56.832 106.005-127.89 80.521zm378.848 138.185c-71.138-26.383-129.213-105.988-129.73-177.992-.518-72.003 56.571-112.553 127.526-90.411 70.97 22.316 129.084 102.357 129.786 178.62.703 76.26-56.425 116.374-127.582 89.783zm379.373 144.089c-71.237-27.491-129.615-113.108-130.409-191.419-.794-78.31 56.139-123.219 127.176-100.146 71.053 23.247 129.47 109.3 130.464 192.046.995 82.746-55.976 127.218-127.231 99.519zm-2648.07-649.97C66.6 2419.255 9.842 2367.266 10.495 2327.631c.653-39.635 58.4-54.459 128.999-32.905 70.62 21.781 127.427 74.325 126.864 117.155-.562 42.83-58.358 57.099-129.07 32.106zm377.054 136.175c-70.811-26.12-127.78-83.077-127.264-127.455.516-44.378 58.238-62.066 128.945-39.303 70.726 22.99 127.745 80.504 127.335 128.254-.41 47.75-58.181 64.883-129.016 38.504zm377.71 143.563c-70.934-27.506-128.133-89.644-127.778-139.026.356-49.381 58.036-70.146 128.85-46.173 70.834 24.2 128.082 86.893 127.848 139.824-.233 52.93-57.962 73.14-128.92 45.375zm378.366 150.95c-71.058-28.891-128.505-96.421-128.333-151.067.172-54.646 57.79-78.698 128.711-53.516 70.942 25.41 128.438 93.494 128.404 151.867-.034 58.372-57.7 81.869-128.782 52.717zm379.022 158.34c-71.18-30.279-128.896-103.412-128.93-163.583-.035-60.17 57.502-87.721 128.531-61.33 71.049 26.619 128.813 100.307 129.001 164.382.188 64.074-57.398 91.07-128.602 60.53zm379.677 165.727c-71.303-31.665-129.304-110.612-129.569-176.57-.264-65.956 57.174-97.216 128.31-69.615 71.156 27.827 129.206 107.33 129.64 177.368.434 70.038-57.054 100.743-128.38 68.817zm380.334 173.116c-71.427-33.051-129.733-118.025-130.25-190.028-.518-72.004 56.802-107.185 128.046-78.375 71.263 29.037 129.618 114.565 130.32 190.827.703 76.262-56.666 110.888-128.116 77.576zm380.99 180.504c-71.551-34.438-130.18-125.648-130.974-203.96-.793-78.31 56.39-117.624 127.74-87.605 71.371 30.247 130.05 122.012 131.044 204.758.995 82.747-56.238 121.506-127.81 86.807z" fill="#14A4B5" mask="url(#n)"/></g></g></svg>