<!-- <?xml version="1.0" encoding="UTF-8"?> -->
<svg width="209px" height="377px" viewBox="0 0 209 377" version="1.1" xmlns="http://www.w3.org/2000/svg" xmlns:xlink="http://www.w3.org/1999/xlink">
  <title>Group</title>
  <desc>Created with Sketch.</desc>
  <defs></defs>
  <g id="Page-1" stroke="none" stroke-width="1" fill="none" fill-rule="evenodd">
    <g id="Desktop-HD" transform="translate(-143.000000, -56.000000)">
      <g id="Group" transform="translate(143.000000, 56.000000)">
        <path d="M149.804272,376.847093 L201.00674,376.847093 C205.422108,376.847093 209,373.262955 209,368.841696 L209,80.436566 C209,76.0083845 206.34125,70.0318095 203.061517,67.0720498 L129.966867,1.1085855 C128.329603,-0.368945991 125.671688,-0.370110897 124.033133,1.1085855 L50.9384833,67.0720498 C47.6584944,70.0320397 45,76.0153072 45,80.436566 L45,187.103558 L145.808734,263.003908 C148.015409,264.665345 149.804272,268.252003 149.804272,271.012469 L149.804272,376.847093 Z M73,71.0065012 C73,69.3460564 74.3423094,68 76.0065012,68 L109.993499,68 C111.653944,68 113,69.3423094 113,71.0065012 L113,104.993499 C113,106.653944 111.657691,108 109.993499,108 L76.0065012,108 C74.3460564,108 73,106.657691 73,104.993499 L73,71.0065012 Z M143,71.0065012 C143,69.3460564 144.342309,68 146.006501,68 L179.993499,68 C181.653944,68 183,69.3423094 183,71.0065012 L183,104.993499 C183,106.653944 181.657691,108 179.993499,108 L146.006501,108 C144.346056,108 143,106.657691 143,104.993499 L143,71.0065012 Z M73,130.006501 C73,128.346056 74.3423094,127 76.0065012,127 L109.993499,127 C111.653944,127 113,128.342309 113,130.006501 L113,163.993499 C113,165.653944 111.657691,167 109.993499,167 L76.0065012,167 C74.3460564,167 73,165.657691 73,163.993499 L73,130.006501 Z M143,130.006501 C143,128.346056 144.342309,127 146.006501,127 L179.993499,127 C181.653944,127 183,128.342309 183,130.006501 L183,163.993499 C183,165.653944 181.657691,167 179.993499,167 L146.006501,167 C144.346056,167 143,165.657691 143,163.993499 L143,130.006501 Z M143,189.006501 C143,187.346056 144.342309,186 146.006501,186 L179.993499,186 C181.653944,186 183,187.342309 183,189.006501 L183,222.993499 C183,224.653944 181.657691,226 179.993499,226 L146.006501,226 C144.346056,226 143,224.657691 143,222.993499 L143,189.006501 Z M73,188.000556 C73,186.89568 73.8915398,186 74.9972916,186 L109.993499,186 C111.653944,186 113,187.343596 113,188.998024 L113,222.03475 C113,223.690513 111.930097,224.216973 110.617607,223.2162 L73.7990152,195.142023 C73.3577313,194.805544 73,194.086029 73,193.537257 L73,188.000556 Z M143,247.995118 C143,246.34096 144.342309,245 146.006501,245 L179.993499,245 C181.653944,245 183,246.342309 183,248.006501 L183,281.993499 C183,283.653944 181.658229,285 180.00891,285 L161.99109,285 C160.339157,285 159,283.659904 159,282.000544 L159,264.496725 C159,263.393964 158.291855,261.946762 157.42207,261.267242 L143.793442,250.619877 C143.355236,250.277528 143,249.556283 143,249.000193 L143,247.995118 Z M159,305.997292 C159,304.894218 159.897026,304 161.004947,304 L180.00891,304 C181.660843,304 183,305.342309 183,307.006501 L183,340.993499 C183,342.653944 181.658229,344 180.00891,344 L161.004947,344 C159.897645,344 159,343.10846 159,342.002708 L159,305.997292 Z" id="Combined-Shape" fill="#D1D1D1"></path>
        <path d="M0,187.520565 C0,183.103742 2.8681281,181.682655 6.39133319,184.335327 L124.011147,272.892981 C126.21413,274.551639 128,278.13907 128,280.886353 L128,368.521974 C128,372.940929 124.409247,376.5232 119.993027,376.5232 L8.00697327,376.5232 C3.58484404,376.5232 0,372.935728 0,368.525834 L0,187.520565 Z M19,226.402131 C19,223.084181 21.1424318,222.006974 23.7937952,224.002551 L72.9378002,260.991297 C75.5853401,262.983996 75.0360534,264.599397 71.7222917,264.599397 L25.0093036,264.599397 C21.6904569,264.599397 19,261.917248 19,258.591716 L19,226.402131 Z M19,288.806547 C19,287.14591 20.3372926,285.799699 21.9975613,285.799699 L106.873532,285.799699 C108.52904,285.799699 109.871094,287.13569 109.871094,288.806547 L109.871094,305.79285 C109.871094,307.453487 108.533801,308.799699 106.873532,308.799699 L21.9975613,308.799699 C20.3420539,308.799699 19,307.463707 19,305.79285 L19,288.806547 Z M19,333.006848 C19,331.346212 20.3372926,330 21.9975613,330 L106.873532,330 C108.52904,330 109.871094,331.335992 109.871094,333.006848 L109.871094,349.993152 C109.871094,351.653788 108.533801,353 106.873532,353 L21.9975613,353 C20.3420539,353 19,351.664008 19,349.993152 L19,333.006848 Z" id="Combined-Shape" fill="#81C8D1"></path>
      </g>
    </g>
  </g>
</svg>
