<?xml version="1.0" encoding="UTF-8" standalone="no"?>
<!-- Created with Inkscape (http://www.inkscape.org/) -->

<svg
   xmlns:dc="http://purl.org/dc/elements/1.1/"
   xmlns:cc="http://creativecommons.org/ns#"
   xmlns:rdf="http://www.w3.org/1999/02/22-rdf-syntax-ns#"
   xmlns:svg="http://www.w3.org/2000/svg"
   xmlns="http://www.w3.org/2000/svg"
   xmlns:sodipodi="http://sodipodi.sourceforge.net/DTD/sodipodi-0.dtd"
   xmlns:inkscape="http://www.inkscape.org/namespaces/inkscape"
   width="70.271431mm"
   height="42.268715mm"
   viewBox="0 0 248.99325 149.77103"
   id="svg2"
   version="1.1"
   inkscape:version="0.91 r13725"
   sodipodi:docname="{Canvas} Google Places Gym Dumbbell Glyph Icon [Isenrich, Oliver] 2.svg">
  <defs
     id="defs4" />
  <sodipodi:namedview
     id="base"
     pagecolor="#ffffff"
     bordercolor="#666666"
     borderopacity="1.0"
     inkscape:pageopacity="0.0"
     inkscape:pageshadow="2"
     inkscape:zoom="1.4"
     inkscape:cx="180.81043"
     inkscape:cy="102.76657"
     inkscape:document-units="px"
     inkscape:current-layer="layer1"
     showgrid="false"
     fit-margin-top="0"
     fit-margin-left="0"
     fit-margin-right="0"
     fit-margin-bottom="0"
     inkscape:window-width="1676"
     inkscape:window-height="1006"
     inkscape:window-x="4"
     inkscape:window-y="0"
     inkscape:window-maximized="1" />
  <metadata
     id="metadata7">
    <rdf:RDF>
      <cc:Work
         rdf:about="">
        <dc:format>image/svg+xml</dc:format>
        <dc:type
           rdf:resource="http://purl.org/dc/dcmitype/StillImage" />
        <dc:title />
      </cc:Work>
    </rdf:RDF>
  </metadata>
  <g
     inkscape:label="Layer 1"
     inkscape:groupmode="layer"
     id="layer1"
     transform="translate(-124.18957,-85.357724)">
    <g
       id="g4216"
       style="fill:#000000;fill-opacity:1">
      <g
         transform="translate(0,0.91673514)"
         id="g4212"
         style="fill:#000000;fill-opacity:1" />
      <g
         transform="translate(0,-0.91698365)"
         id="g4208"
         style="fill:#000000;fill-opacity:1">
        <path
           id="rect4206"
           style="opacity:1;fill:#000000;fill-opacity:1;fill-rule:nonzero;stroke:#ffffff;stroke-width:5.02139139;stroke-miterlimit:4;stroke-dasharray:none;stroke-opacity:1"
           d="m 352.59637,120.65091 0.13294,0 c 9.94033,0 17.94283,8.0025 17.94283,17.94283 l 0,45.13294 c 0,9.94033 -8.0025,17.94284 -17.94283,17.94284 l -0.13294,0 c -9.94033,0 -17.94284,-8.00251 -17.94284,-17.94284 l 0,-45.13294 c 0,-9.94033 8.00251,-17.94283 17.94284,-17.94283 z m -45.2208,-31.850548 10.86714,0 c 9.37716,0 16.92628,7.549124 16.92628,16.926288 l 0,110.86714 c 0,9.37716 -7.54912,16.92628 -16.92628,16.92628 l -10.86714,0 c -9.37717,0 -16.92629,-7.54912 -16.92629,-16.92628 l 0,-110.86714 c 0,-9.377164 7.54912,-16.926288 16.92629,-16.926288 z m -166.95374,31.917268 8.44206,0 c 7.60174,0 13.72156,6.11981 13.72156,13.72156 l 0,53.44206 c 0,7.60174 -6.11982,13.72156 -13.72156,13.72156 l -8.44206,0 c -7.60175,0 -13.72156,-6.11982 -13.72156,-13.72156 l 0,-53.44206 c 0,-7.60175 6.11981,-13.72156 13.72156,-13.72156 z m 35.41765,-31.932234 17.60678,0 c 7.51857,0 13.57143,6.052857 13.57143,13.571434 l 0,117.60678 c 0,7.51857 -6.05286,13.57143 -13.57143,13.57143 l -17.60678,0 c -7.51858,0 -13.57143,-6.05286 -13.57143,-13.57143 l 0,-117.60678 c 0,-7.518577 6.05285,-13.571434 13.57143,-13.571434 z m 31.89922,55.792064 82.45121,0 0,33.16551 -82.45121,0 z"
           inkscape:connector-curvature="0" />
      </g>
    </g>
  </g>
</svg>
