<?xml version="1.0" encoding="UTF-8" standalone="no"?>
<!-- Created with Inkscape (http://www.inkscape.org/) -->

<svg
   xmlns:dc="http://purl.org/dc/elements/1.1/"
   xmlns:cc="http://creativecommons.org/ns#"
   xmlns:rdf="http://www.w3.org/1999/02/22-rdf-syntax-ns#"
   xmlns:svg="http://www.w3.org/2000/svg"
   xmlns="http://www.w3.org/2000/svg"
   xmlns:sodipodi="http://sodipodi.sourceforge.net/DTD/sodipodi-0.dtd"
   xmlns:inkscape="http://www.inkscape.org/namespaces/inkscape"
   width="124.55242mm"
   height="112.41268mm"
   viewBox="0 0 441.32748 398.31265"
   id="svg2"
   version="1.1"
   inkscape:version="0.91 r13725"
   sodipodi:docname="frowny-face.svg">
  <defs
     id="defs4" />
  <sodipodi:namedview
     id="base"
     pagecolor="#ffffff"
     bordercolor="#666666"
     borderopacity="1.0"
     inkscape:pageopacity="0.0"
     inkscape:pageshadow="2"
     inkscape:zoom="0.98994949"
     inkscape:cx="43.692727"
     inkscape:cy="144.02609"
     inkscape:document-units="px"
     inkscape:current-layer="layer1"
     showgrid="false"
     inkscape:window-width="1676"
     inkscape:window-height="1006"
     inkscape:window-x="4"
     inkscape:window-y="0"
     inkscape:window-maximized="1"
     fit-margin-top="0"
     fit-margin-left="0"
     fit-margin-right="0"
     fit-margin-bottom="0" />
  <metadata
     id="metadata7">
    <rdf:RDF>
      <cc:Work
         rdf:about="">
        <dc:format>image/svg+xml</dc:format>
        <dc:type
           rdf:resource="http://purl.org/dc/dcmitype/StillImage" />
        <dc:title />
      </cc:Work>
    </rdf:RDF>
  </metadata>
  <g
     inkscape:label="Layer 1"
     inkscape:groupmode="layer"
     id="layer1"
     transform="translate(-112.68359,-106.64707)">
    <path
       style="opacity:1;fill:#ffffff;fill-opacity:1;fill-rule:nonzero;stroke:none;stroke-width:10;stroke-miterlimit:4;stroke-dasharray:none;stroke-opacity:1"
       d="m 352.58594,106.6543 c -37.68067,0.32024 -74.56271,11.28278 -106.35742,31.69726 -45.95037,31.74153 -75.87584,74.94222 -87.33204,125.60352 0,0 -11.83723,39.56028 0.1875,89.1875 l -46.40039,97.52344 c 40.75557,-19.86697 66.1845,-20.50843 87.3418,-2.79297 55.50309,46.47396 168.98206,86.73605 261.98242,27.28515 l -0.0664,-0.10351 c 92.54102,-59.88896 120.20134,-183.89857 60.5332,-276.62891 -35.68647,-55.4618 -96.42093,-89.76523 -162.34375,-91.69336 -2.51788,-0.0736 -5.03288,-0.0995 -7.54492,-0.0781 z m -80.42578,118.57617 c 8.24021,0.24086 15.832,4.5285 20.29296,11.46094 7.46632,11.60352 4.12006,27.06203 -7.47656,34.53906 l -13.54883,-21.01172 13.4668,21.06445 c -11.62517,7.43127 -27.07279,4.03965 -34.51562,-7.57812 -7.44318,-11.61762 -4.0673,-27.06877 7.54297,-34.52344 4.23955,-2.72161 9.20248,-4.09884 14.23828,-3.95117 z m 165.71289,0 c 8.24021,0.24085 15.83199,4.52849 20.29297,11.46094 7.46668,11.60302 4.12133,27.06139 -7.47461,34.53906 l -13.54883,-21.01172 13.46484,21.06445 c -11.62517,7.43127 -27.07279,4.03965 -34.51562,-7.57812 -7.44282,-11.61813 -4.06602,-27.06941 7.54492,-34.52344 4.23901,-2.72123 9.20119,-4.09844 14.23633,-3.95117 z m -40.4043,111.6582 c 62.57931,0.21496 113.55664,36.80274 113.55664,36.80274 0,0 -87.35619,-24.96289 -143.98437,-12.68555 -56.62817,12.27734 -112.59766,49.95703 -112.59766,49.95703 0,0 35.53344,-55.06251 111.54492,-70.9375 10.68912,-2.23242 21.24022,-3.17189 31.48047,-3.13672 z"
       id="path4136"
       inkscape:connector-curvature="0" />
  </g>
</svg>
